<svg width="19" height="18" viewBox="0 0 19 18" fill="none" xmlns="http://www.w3.org/2000/svg">
<path d="M11.3244 14.1148C11.4669 14.1148 11.6094 14.0623 11.7219 13.9498L16.2744 9.39734C16.4919 9.17984 16.4919 8.81984 16.2744 8.60234L11.7219 4.04984C11.5044 3.83234 11.1444 3.83234 10.9269 4.04984C10.7094 4.26734 10.7094 4.62734 10.9269 4.84484L15.0819 8.99984L10.9269 13.1548C10.7094 13.3723 10.7094 13.7323 10.9269 13.9498C11.0319 14.0623 11.1819 14.1148 11.3244 14.1148Z" fill="#A9A9AC"/>
<path d="M3.1275 9.5625H15.75C16.0575 9.5625 16.3125 9.3075 16.3125 9C16.3125 8.6925 16.0575 8.4375 15.75 8.4375H3.1275C2.82 8.4375 2.565 8.6925 2.565 9C2.565 9.3075 2.82 9.5625 3.1275 9.5625Z" fill="#A9A9AC"/>
</svg>
