<svg width="19" height="18" viewBox="0 0 19 18" fill="none" xmlns="http://www.w3.org/2000/svg">
<path d="M7.67375 14.1148C7.81625 14.1148 7.95875 14.0623 8.07125 13.9498C8.28875 13.7323 8.28875 13.3723 8.07125 13.1548L3.91625 8.99984L8.07125 4.84484C8.28875 4.62734 8.28875 4.26734 8.07125 4.04984C7.85375 3.83234 7.49375 3.83234 7.27625 4.04984L2.72375 8.60234C2.50625 8.81984 2.50625 9.17984 2.72375 9.39734L7.27625 13.9498C7.38875 14.0623 7.53125 14.1148 7.67375 14.1148Z" fill="#A9A9AC"/>
<path d="M3.2525 9.5625H15.875C16.1825 9.5625 16.4375 9.3075 16.4375 9C16.4375 8.6925 16.1825 8.4375 15.875 8.4375H3.2525C2.945 8.4375 2.69 8.6925 2.69 9C2.69 9.3075 2.945 9.5625 3.2525 9.5625Z" fill="#A9A9AC"/>
</svg>
