<svg width="24" height="24" viewBox="0 0 24 24" fill="none" xmlns="http://www.w3.org/2000/svg">
<path d="M16 12.9V17.1C16 20.6 14.6 22 11.1 22H6.9C3.4 22 2 20.6 2 17.1L2 12.9C2 9.4 3.4 8 6.9 8H11.1C14.6 8 16 9.4 16 12.9Z" fill="#292D32"/>
<path d="M17.0978 2L12.8978 2C9.81473 2 8.36879 3.09409 8.06755 5.73901C8.00453 6.29235 8.46281 6.75 9.01972 6.75H11.0978C15.2978 6.75 17.2478 8.7 17.2478 12.9V14.9781C17.2478 15.535 17.7055 15.9933 18.2588 15.9303C20.9037 15.629 21.9978 14.1831 21.9978 11.1V6.9C21.9978 3.4 20.5978 2 17.0978 2Z" fill="#292D32"/>
</svg>
