<svg width="84" height="83" viewBox="0 0 84 83" fill="none" xmlns="http://www.w3.org/2000/svg">
<rect x="0.5" width="83" height="83" rx="12" fill="#F6F6F6"/>
<path d="M58.3344 34.2245V51.8683C58.3344 56.4808 54.5656 60.2495 49.9531 60.2495H34.0531C29.4406 60.2495 25.6719 56.4808 25.6719 51.8683V34.2245C25.6719 31.0183 27.4719 28.2245 30.1156 26.8183C31.0344 26.3308 32.1781 26.987 32.1781 28.037C32.1781 31.0183 34.6156 33.4558 37.5969 33.4558H46.4094C49.3906 33.4558 51.8281 31.0183 51.8281 28.037C51.8281 26.987 52.9531 26.3308 53.8906 26.8183C56.5344 28.2245 58.3344 31.0183 58.3344 34.2245Z" fill="#086CAE "/>
<path d="M46.4031 22.75H37.5906C35.6406 22.75 34.0469 24.325 34.0469 26.275V28.0375C34.0469 29.9875 35.6219 31.5625 37.5719 31.5625H46.4031C48.3531 31.5625 49.9281 29.9875 49.9281 28.0375V26.275C49.9469 24.325 48.3531 22.75 46.4031 22.75Z" fill="#086CAE "/>
</svg>
