<svg width="84" height="83" viewBox="0 0 84 83" fill="none" xmlns="http://www.w3.org/2000/svg">
<rect x="0.5" width="83" height="83" rx="12" fill="#F6F6F6"/>
<path d="M55.8172 28.1684L44.8297 23.2746C43.2172 22.5621 40.7797 22.5621 39.1672 23.2746L28.1797 28.1684C25.4047 29.4059 24.9922 31.0934 24.9922 31.9934C24.9922 32.8934 25.4047 34.5809 28.1797 35.8184L39.1672 40.7121C39.9734 41.0684 40.9859 41.2559 41.9984 41.2559C43.0109 41.2559 44.0234 41.0684 44.8297 40.7121L55.8172 35.8184C58.5922 34.5809 59.0047 32.8934 59.0047 31.9934C59.0047 31.0934 58.6109 29.4059 55.8172 28.1684Z" fill="#086CAE "/>
<path d="M42.0016 50.95C41.2891 50.95 40.5766 50.8 39.9203 50.5187L27.2828 44.8938C25.3516 44.0313 23.8516 41.725 23.8516 39.6062C23.8516 38.8375 24.4703 38.2188 25.2391 38.2188C26.0078 38.2188 26.6266 38.8375 26.6266 39.6062C26.6266 40.6187 27.4703 41.9312 28.4078 42.3437L41.0453 47.9687C41.6453 48.2312 42.3391 48.2312 42.9391 47.9687L55.5766 42.3437C56.5141 41.9312 57.3578 40.6375 57.3578 39.6062C57.3578 38.8375 57.9766 38.2188 58.7453 38.2188C59.5141 38.2188 60.1328 38.8375 60.1328 39.6062C60.1328 41.7062 58.6328 44.0313 56.7016 44.8938L44.0641 50.5187C43.4266 50.8 42.7141 50.95 42.0016 50.95Z" fill="#086CAE "/>
<path d="M42.0016 60.2498C41.2891 60.2498 40.5766 60.0998 39.9203 59.8186L27.2828 54.1936C25.2016 53.2748 23.8516 51.1936 23.8516 48.9061C23.8516 48.1373 24.4703 47.5186 25.2391 47.5186C26.0078 47.5186 26.6266 48.1373 26.6266 48.9061C26.6266 50.0873 27.3203 51.1561 28.4078 51.6436L41.0453 57.2686C41.6453 57.5311 42.3391 57.5311 42.9391 57.2686L55.5766 51.6436C56.6453 51.1748 57.3578 50.0873 57.3578 48.9061C57.3578 48.1373 57.9766 47.5186 58.7453 47.5186C59.5141 47.5186 60.1328 48.1373 60.1328 48.9061C60.1328 51.1936 58.7828 53.2561 56.7016 54.1936L44.0641 59.8186C43.4266 60.0998 42.7141 60.2498 42.0016 60.2498Z" fill="#292D32"/>
</svg>
