<svg width="84" height="83" viewBox="0 0 84 83" fill="none" xmlns="http://www.w3.org/2000/svg">
<rect x="0.5" width="83" height="83" rx="12" fill="#F6F6F6"/>
<path d="M55.4406 31.4496C54.6344 27.3809 51.6156 25.5996 47.4156 25.5996H30.9531C26.0031 25.5996 22.7031 28.0746 22.7031 33.8496V43.5059C22.7031 47.6684 24.4094 50.1059 27.2219 51.1559C27.6344 51.3059 28.0844 51.4371 28.5531 51.5121C29.3031 51.6809 30.1094 51.7559 30.9531 51.7559H47.4344C52.3844 51.7559 55.6844 49.2809 55.6844 43.5059V33.8496C55.6844 32.9684 55.6094 32.1809 55.4406 31.4496ZM29.8656 41.4996C29.8656 42.2684 29.2281 42.9059 28.4594 42.9059C27.6906 42.9059 27.0531 42.2684 27.0531 41.4996V35.8746C27.0531 35.1059 27.6906 34.4684 28.4594 34.4684C29.2281 34.4684 29.8656 35.1059 29.8656 35.8746V41.4996ZM39.1844 43.6371C36.4469 43.6371 34.2344 41.4246 34.2344 38.6871C34.2344 35.9496 36.4469 33.7371 39.1844 33.7371C41.9219 33.7371 44.1344 35.9496 44.1344 38.6871C44.1344 41.4246 41.9219 43.6371 39.1844 43.6371ZM51.2969 41.4996C51.2969 42.2684 50.6594 42.9059 49.8906 42.9059C49.1219 42.9059 48.4844 42.2684 48.4844 41.4996V35.8746C48.4844 35.1059 49.1219 34.4684 49.8906 34.4684C50.6594 34.4684 51.2969 35.1059 51.2969 35.8746V41.4996Z" fill="#086CAE "/>
<path d="M61.3089 39.4753V49.1315C61.3089 54.9065 58.0089 57.4003 53.0401 57.4003H36.5776C35.1714 57.4003 33.9151 57.194 32.8276 56.7815C31.9464 56.4628 31.1776 55.994 30.5589 55.394C30.2214 55.0753 30.4839 54.569 30.9526 54.569H47.4151C54.3526 54.569 58.4776 50.444 58.4776 43.5253V33.8503C58.4776 33.4003 58.9839 33.119 59.3026 33.4565C60.5776 34.8065 61.3089 36.7753 61.3089 39.4753Z" fill="#292D32"/>
</svg>
