<svg width="46" height="45" viewBox="0 0 46 45" fill="none" xmlns="http://www.w3.org/2000/svg">
<path d="M30.8563 3.75H15.1438C8.31875 3.75 4.25 7.81875 4.25 14.6438V30.3375C4.25 37.1813 8.31875 41.25 15.1438 41.25H30.8375C37.6625 41.25 41.7313 37.1813 41.7313 30.3563V14.6438C41.75 7.81875 37.6813 3.75 30.8563 3.75ZM34.25 23.9062H24.4063V33.75C24.4063 34.5187 23.7688 35.1562 23 35.1562C22.2313 35.1562 21.5938 34.5187 21.5938 33.75V23.9062H11.75C10.9813 23.9062 10.3438 23.2687 10.3438 22.5C10.3438 21.7313 10.9813 21.0938 11.75 21.0938H21.5938V11.25C21.5938 10.4812 22.2313 9.84375 23 9.84375C23.7688 9.84375 24.4063 10.4812 24.4063 11.25V21.0938H34.25C35.0188 21.0938 35.6563 21.7313 35.6563 22.5C35.6563 23.2687 35.0188 23.9062 34.25 23.9062Z" fill="#121212"/>
</svg>
