<svg width="32" height="32" viewBox="0 0 32 32" fill="none" xmlns="http://www.w3.org/2000/svg">
<path fill-rule="evenodd" clip-rule="evenodd" d="M6.20574 14.8221L15.1503 5.65479C16.4779 4.24583 18.4438 3.68077 20.2925 4.17678C22.1412 4.67279 23.5849 6.15269 24.0688 8.04767C24.5243 9.83118 24.0627 11.7212 22.8693 13.0634L22.637 13.3085L13.6392 22.5365C12.4449 23.7193 10.5461 23.7027 9.37158 22.4992C8.25301 21.353 8.18451 19.533 9.18542 18.2956L9.34358 18.1145L18.3324 8.89757C18.6452 8.57681 19.1525 8.57673 19.4654 8.89737C19.7435 9.1824 19.7745 9.6249 19.5582 9.94499L19.4656 10.0587L10.4865 19.2655C9.9401 19.8456 9.94806 20.7676 10.5044 21.3376C11.0179 21.8639 11.8238 21.9111 12.3819 21.4825L12.5159 21.3654L21.5138 12.1373C22.4718 11.1888 22.856 9.78431 22.5188 8.46356C22.1815 7.14282 21.1753 6.11137 19.8868 5.76567C18.6903 5.44466 17.4234 5.76131 16.4999 6.6026L16.293 6.80601L7.33871 15.9835C5.02348 18.3567 5.02349 22.2044 7.33873 24.5777C9.57928 26.8743 13.167 26.9484 15.4944 24.8L15.7229 24.5777L26.6323 13.3941C26.9452 13.0734 27.4524 13.0733 27.7653 13.394C28.0434 13.6791 28.0744 14.1216 27.8581 14.4416L27.7654 14.5554L16.8559 25.739C13.9149 28.7537 9.14671 28.7536 6.20573 25.739C3.34645 22.8082 3.26702 18.1069 5.96747 15.0776L6.20574 14.8221Z" fill="#A9A9AC"/>
</svg>
