<svg width="20" height="20" viewBox="0 0 20 20" fill="none" xmlns="http://www.w3.org/2000/svg">
<path d="M14.543 18.9577C13.6013 18.9577 12.6096 18.7327 11.5846 18.2993C10.5846 17.8743 9.5763 17.291 8.59297 16.5827C7.60964 15.866 6.66797 15.0577 5.78464 14.1827C4.9013 13.291 4.1013 12.3493 3.39297 11.3827C2.6763 10.3827 2.1013 9.39102 1.69297 8.41602C1.25964 7.39102 1.04297 6.39102 1.04297 5.44935C1.04297 4.79935 1.15964 4.18268 1.38464 3.60768C1.6263 3.00768 1.99297 2.46602 2.5013 1.99102C3.14297 1.36602 3.8763 1.04102 4.65964 1.04102C4.98464 1.04102 5.31797 1.11602 5.6013 1.24935C5.9263 1.39935 6.2013 1.62435 6.4013 1.92435L8.33464 4.64935C8.50964 4.89102 8.64297 5.12435 8.73464 5.35768C8.84297 5.60768 8.9013 5.85768 8.9013 6.09935C8.9013 6.41602 8.80964 6.72435 8.63464 7.01602C8.50964 7.24102 8.31797 7.48268 8.0763 7.72435L7.50964 8.31602C7.51797 8.34102 7.5263 8.35768 7.53464 8.37435C7.63464 8.54935 7.83464 8.84935 8.21797 9.29935C8.61797 9.76602 9.00964 10.1827 9.39297 10.5827C9.89297 11.0743 10.293 11.4493 10.6763 11.766C11.1513 12.166 11.4596 12.366 11.643 12.4577L11.6263 12.4993L12.2346 11.8993C12.493 11.641 12.743 11.4493 12.9846 11.3243C13.443 11.041 14.0263 10.991 14.6096 11.2327C14.8263 11.3243 15.0596 11.4493 15.3096 11.6243L18.0763 13.591C18.3763 13.7993 18.6096 14.066 18.743 14.3827C18.868 14.6993 18.9263 14.991 18.9263 15.2827C18.9263 15.6827 18.8346 16.0827 18.6596 16.4577C18.4846 16.8327 18.268 17.1577 17.993 17.4577C17.518 17.9827 17.0013 18.3577 16.4013 18.5993C15.8263 18.8327 15.2013 18.9577 14.543 18.9577ZM4.65964 2.29102C4.2013 2.29102 3.7763 2.49102 3.36797 2.89102C2.99297 3.24935 2.71797 3.64102 2.5513 4.06602C2.3763 4.49935 2.29297 4.95768 2.29297 5.44935C2.29297 6.22435 2.4763 7.06602 2.84297 7.93268C3.21797 8.81602 3.74297 9.73268 4.40964 10.6493C5.0763 11.566 5.83464 12.4577 6.66797 13.2993C7.5013 14.1243 8.4013 14.891 9.3263 15.566C10.2263 16.2243 11.1513 16.7577 12.068 17.141C13.493 17.7493 14.8263 17.891 15.9263 17.4327C16.3513 17.2577 16.7263 16.991 17.068 16.6077C17.2596 16.3994 17.4096 16.1743 17.5346 15.9077C17.6346 15.6993 17.6846 15.4827 17.6846 15.266C17.6846 15.1327 17.6596 14.9993 17.593 14.8493C17.5763 14.8077 17.518 14.7077 17.3596 14.5993L14.593 12.6327C14.4263 12.516 14.2763 12.4327 14.1346 12.3743C13.918 12.291 13.7763 12.2827 13.593 12.3993C13.4263 12.4827 13.2763 12.6077 13.1096 12.7743L12.4763 13.3993C12.1513 13.716 11.6513 13.791 11.268 13.6493L11.043 13.5493C10.7013 13.366 10.3013 13.0827 9.85964 12.7077C9.4513 12.366 9.03464 11.9743 8.5013 11.4493C8.08464 11.0243 7.68464 10.5827 7.25964 10.0993C6.86797 9.64102 6.58464 9.24935 6.40964 8.92435L6.3013 8.67435C6.2513 8.49102 6.23464 8.38268 6.23464 8.26602C6.23464 7.96602 6.34297 7.69935 6.5513 7.49102L7.1763 6.84102C7.34297 6.67435 7.46797 6.51602 7.5513 6.37435C7.61797 6.26602 7.64297 6.17435 7.64297 6.09102C7.64297 6.02435 7.61797 5.92435 7.5763 5.82435C7.5263 5.68268 7.43464 5.54102 7.31797 5.37435L5.38464 2.64102C5.3013 2.52435 5.2013 2.44102 5.0763 2.38268C4.94297 2.32435 4.8013 2.29102 4.65964 2.29102ZM11.6263 12.5077L11.493 13.0743L11.718 12.491C11.6846 12.4827 11.6513 12.491 11.6263 12.5077Z" fill="#32A840"/>
<path d="M14.1685 7.26628C14.0102 7.26628 13.8518 7.20794 13.7268 7.08294L12.0602 5.41628C11.8185 5.17461 11.8185 4.77461 12.0602 4.53294C12.3018 4.29128 12.7018 4.29128 12.9435 4.53294L14.1685 5.75794L17.0602 2.87461C17.3018 2.63294 17.7018 2.63294 17.9435 2.87461C18.1852 3.11628 18.1852 3.51628 17.9435 3.75794L14.6102 7.09128C14.4852 7.19961 14.3268 7.26628 14.1685 7.26628Z" fill="#32A840"/>
</svg>
