<svg width="34" height="34" viewBox="0 0 34 34" fill="none" xmlns="http://www.w3.org/2000/svg">
<rect width="34" height="34" rx="17" fill="#F6F6F6"/>
<path d="M26.07 10.23C24.46 10.07 22.85 9.95 21.23 9.86V9.85L21.01 8.55C20.86 7.63 20.64 6.25 18.3 6.25H15.68C13.35 6.25 13.13 7.57 12.97 8.54L12.76 9.82C11.83 9.88 10.9 9.94 9.96997 10.03L7.92997 10.23C7.50997 10.27 7.20997 10.64 7.24997 11.05C7.28997 11.46 7.64997 11.76 8.06997 11.72L10.11 11.52C15.35 11 20.63 11.2 25.93 11.73C25.96 11.73 25.98 11.73 26.01 11.73C26.39 11.73 26.72 11.44 26.76 11.05C26.79 10.64 26.49 10.27 26.07 10.23Z" fill="#FF2B2B"/>
<path d="M24.23 13.14C23.99 12.89 23.66 12.75 23.32 12.75H10.68C10.34 12.75 9.99999 12.89 9.76999 13.14C9.53999 13.39 9.40999 13.73 9.42999 14.08L10.05 24.34C10.16 25.86 10.3 27.76 13.79 27.76H20.21C23.7 27.76 23.84 25.87 23.95 24.34L24.57 14.09C24.59 13.73 24.46 13.39 24.23 13.14ZM18.66 22.75H15.33C14.92 22.75 14.58 22.41 14.58 22C14.58 21.59 14.92 21.25 15.33 21.25H18.66C19.07 21.25 19.41 21.59 19.41 22C19.41 22.41 19.07 22.75 18.66 22.75ZM19.5 18.75H14.5C14.09 18.75 13.75 18.41 13.75 18C13.75 17.59 14.09 17.25 14.5 17.25H19.5C19.91 17.25 20.25 17.59 20.25 18C20.25 18.41 19.91 18.75 19.5 18.75Z" fill="#FF2B2B"/>
</svg>
