<svg width="34" height="34" viewBox="0 0 34 34" fill="none" xmlns="http://www.w3.org/2000/svg">
<rect width="34" height="34" rx="17" fill="#F6F6F6"/>
<path d="M26.0697 10.23C24.4597 10.07 22.8497 9.95 21.2297 9.86V9.85L21.0097 8.55C20.8597 7.63 20.6397 6.25 18.2997 6.25H15.6797C13.3497 6.25 13.1297 7.57 12.9697 8.54L12.7597 9.82C11.8297 9.88 10.8997 9.94 9.96967 10.03L7.92967 10.23C7.50967 10.27 7.20967 10.64 7.24967 11.05C7.28967 11.46 7.64967 11.76 8.06967 11.72L10.1097 11.52C15.3497 11 20.6297 11.2 25.9297 11.73C25.9597 11.73 25.9797 11.73 26.0097 11.73C26.3897 11.73 26.7197 11.44 26.7597 11.05C26.7897 10.64 26.4897 10.27 26.0697 10.23Z" fill="#A9A9AC"/>
<path d="M24.2297 13.14C23.9897 12.89 23.6597 12.75 23.3197 12.75H10.6797C10.3397 12.75 9.99975 12.89 9.76975 13.14C9.53975 13.39 9.40975 13.73 9.42975 14.08L10.0497 24.34C10.1597 25.86 10.2997 27.76 13.7897 27.76H20.2097C23.6997 27.76 23.8398 25.87 23.9497 24.34L24.5697 14.09C24.5897 13.73 24.4597 13.39 24.2297 13.14ZM18.6597 22.75H15.3297C14.9197 22.75 14.5797 22.41 14.5797 22C14.5797 21.59 14.9197 21.25 15.3297 21.25H18.6597C19.0697 21.25 19.4097 21.59 19.4097 22C19.4097 22.41 19.0697 22.75 18.6597 22.75ZM19.4997 18.75H14.4997C14.0897 18.75 13.7497 18.41 13.7497 18C13.7497 17.59 14.0897 17.25 14.4997 17.25H19.4997C19.9097 17.25 20.2497 17.59 20.2497 18C20.2497 18.41 19.9097 18.75 19.4997 18.75Z" fill="#A9A9AC"/>
</svg>
