<svg width="46" height="45" viewBox="0 0 46 45" fill="none" xmlns="http://www.w3.org/2000/svg">
<path d="M39.3305 15.2265V32.8702C39.3305 37.4827 35.5617 41.2515 30.9492 41.2515H15.0492C10.4367 41.2515 6.66797 37.4827 6.66797 32.8702V15.2265C6.66797 12.0202 8.46797 9.22649 11.1117 7.82024C12.0305 7.33274 13.1742 7.98899 13.1742 9.03899C13.1742 12.0202 15.6117 14.4577 18.593 14.4577H27.4055C30.3867 14.4577 32.8242 12.0202 32.8242 9.03899C32.8242 7.98899 33.9492 7.33274 34.8867 7.82024C37.5305 9.22649 39.3305 12.0202 39.3305 15.2265Z" fill="#121212"/>
<path d="M27.407 3.75H18.5945C16.6445 3.75 15.0508 5.325 15.0508 7.275V9.0375C15.0508 10.9875 16.6258 12.5625 18.5758 12.5625H27.407C29.357 12.5625 30.932 10.9875 30.932 9.0375V7.275C30.9508 5.325 29.357 3.75 27.407 3.75Z" fill="#121212"/>
</svg>
