<svg width="46" height="45" viewBox="0 0 46 45" fill="none" xmlns="http://www.w3.org/2000/svg">
<path d="M21.5934 15.1504V20.5129L19.6996 19.8566C18.7434 19.5191 18.1621 19.2004 18.1621 17.5691C18.1621 16.2379 19.1559 15.1504 20.3746 15.1504H21.5934Z" fill="#086CAE "/>
<path d="M27.8375 27.4311C27.8375 28.7623 26.8437 29.8498 25.625 29.8498H24.4062V24.4873L26.3 25.1436C27.2563 25.4811 27.8375 25.7998 27.8375 27.4311Z" fill="#086CAE "/>
<path d="M30.8563 3.75H15.1438C8.31875 3.75 4.25 7.81875 4.25 14.6438V30.3563C4.25 37.1813 8.31875 41.25 15.1438 41.25H30.8563C37.6813 41.25 41.75 37.1813 41.75 30.3563V14.6438C41.75 7.81875 37.6813 3.75 30.8563 3.75ZM27.2375 22.5C28.7 23.0063 30.65 24.075 30.65 27.4312C30.65 30.3188 28.4 32.6625 25.625 32.6625H24.4062V33.75C24.4062 34.5187 23.7687 35.1562 23 35.1562C22.2313 35.1562 21.5938 34.5187 21.5938 33.75V32.6625H20.9188C17.8438 32.6625 15.35 30.0562 15.35 26.8687C15.35 26.1 15.9688 25.4625 16.7563 25.4625C17.525 25.4625 18.1625 26.1 18.1625 26.8687C18.1625 28.5187 19.4 29.85 20.9188 29.85H21.5938V23.4937L18.7625 22.5C17.3 21.9937 15.35 20.925 15.35 17.5687C15.35 14.6812 17.6 12.3375 20.375 12.3375H21.5938V11.25C21.5938 10.4812 22.2313 9.84375 23 9.84375C23.7687 9.84375 24.4062 10.4812 24.4062 11.25V12.3375H25.0812C28.1562 12.3375 30.65 14.9438 30.65 18.1313C30.65 18.9 30.0312 19.5375 29.2437 19.5375C28.475 19.5375 27.8375 18.9 27.8375 18.1313C27.8375 16.4812 26.6 15.15 25.0812 15.15H24.4062V21.5063L27.2375 22.5Z" fill="#292D32"/>
</svg>
