<svg width="24" height="23" viewBox="0 0 24 23" fill="none" xmlns="http://www.w3.org/2000/svg">
<g clip-path="url(#clip0_9175_7460)">
<path d="M15.0704 10.6051L5.58203 8.93066V21.3029C5.58203 21.868 6.04007 22.326 6.6051 22.326H22.9776C23.5426 22.326 24.0006 21.868 24.0006 21.3029V16.7446L15.0704 10.6051Z" fill="#185C37"/>
<path d="M15.0704 0H6.6051C6.04007 0 5.58203 0.458041 5.58203 1.02307V5.5814L15.0704 11.1628L20.0937 12.8372L24.0006 11.1628V5.5814L15.0704 0Z" fill="#21A366"/>
<path d="M5.58203 5.58105H15.0704V11.1624H5.58203V5.58105Z" fill="#107C41"/>
<path opacity="0.1" d="M12.3729 4.46484H5.58203V18.4183H12.3729C12.9372 18.4165 13.3942 17.9595 13.396 17.3953V5.48791C13.3942 4.92365 12.9372 4.46668 12.3729 4.46484Z" fill="black"/>
<path opacity="0.2" d="M11.8148 5.02344H5.58203V18.9769H11.8148C12.379 18.9751 12.836 18.5181 12.8378 17.9539V6.0465C12.836 5.48224 12.379 5.02527 11.8148 5.02344Z" fill="black"/>
<path opacity="0.2" d="M11.8148 5.02344H5.58203V17.8606H11.8148C12.379 17.8588 12.836 17.4018 12.8378 16.8376V6.0465C12.836 5.48224 12.379 5.02527 11.8148 5.02344Z" fill="black"/>
<path opacity="0.2" d="M11.2566 5.02344H5.58203V17.8606H11.2566C11.8209 17.8588 12.2779 17.4018 12.2797 16.8376V6.0465C12.2779 5.48224 11.8209 5.02527 11.2566 5.02344Z" fill="black"/>
<path d="M1.02307 5.02344H11.256C11.821 5.02344 12.2791 5.48148 12.2791 6.0465V16.2794C12.2791 16.8445 11.821 17.3025 11.256 17.3025H1.02307C0.458041 17.3025 0 16.8445 0 16.2794V6.0465C0 5.48148 0.458041 5.02344 1.02307 5.02344Z" fill="url(#paint0_linear_9175_7460)"/>
<path d="M3.16797 14.4883L5.32015 11.1534L3.34825 7.83691H4.93448L6.01057 9.95784C6.10993 10.1593 6.17801 10.3089 6.21486 10.4077H6.22881C6.2995 10.247 6.37392 10.0909 6.45206 9.93942L7.60238 7.83804H9.05857L7.03643 11.135L9.10993 14.4883H7.56053L6.31755 12.1603C6.259 12.0612 6.20932 11.9572 6.16909 11.8494H6.15068C6.11426 11.955 6.06596 12.0561 6.00667 12.1508L4.72686 14.4883H3.16797Z" fill="white"/>
<path d="M22.9775 0H15.0703V5.5814H24.0005V1.02307C24.0005 0.458041 23.5425 0 22.9775 0Z" fill="#33C481"/>
<path d="M15.0703 11.1631H24.0005V16.7445H15.0703V11.1631Z" fill="#107C41"/>
</g>
<defs>
<linearGradient id="paint0_linear_9175_7460" x1="2.13312" y1="4.22403" x2="10.1459" y2="18.1019" gradientUnits="userSpaceOnUse">
<stop stop-color="#18884F"/>
<stop offset="0.5" stop-color="#117E43"/>
<stop offset="1" stop-color="#0B6631"/>
</linearGradient>
<clipPath id="clip0_9175_7460">
<rect width="24" height="22.3256" fill="white"/>
</clipPath>
</defs>
</svg>
