<svg width="46" height="45" viewBox="0 0 46 45" fill="none" xmlns="http://www.w3.org/2000/svg">
<path d="M30.8563 3.75H15.1438C8.31875 3.75 4.25 7.81875 4.25 14.6438V30.3375C4.25 37.1813 8.31875 41.25 15.1438 41.25H30.8375C37.6625 41.25 41.7313 37.1813 41.7313 30.3563V14.6438C41.75 7.81875 37.6813 3.75 30.8563 3.75ZM32.8438 23.1187C32.8438 23.8875 32.2063 24.525 31.4375 24.525C30.6688 24.525 30.0313 23.8875 30.0313 23.1187V17.4563L15.5563 31.9313C15.275 32.2125 14.9188 32.3438 14.5625 32.3438C14.2063 32.3438 13.85 32.2125 13.5688 31.9313C13.025 31.3875 13.025 30.4875 13.5688 29.9438L28.0438 15.4688H22.3813C21.6125 15.4688 20.975 14.8313 20.975 14.0625C20.975 13.2937 21.6125 12.6562 22.3813 12.6562H31.4375C32.2063 12.6562 32.8438 13.2937 32.8438 14.0625V23.1187Z" fill="#121212"/>
</svg>
