<svg width="46" height="45" viewBox="0 0 46 45" fill="none" xmlns="http://www.w3.org/2000/svg">
<path d="M17.9759 24.8998H23.7696V38.3998C23.7696 40.3873 26.2446 41.3248 27.5571 39.8248L41.7509 23.6998C42.9884 22.2935 41.9946 20.0998 40.1196 20.0998H34.3259V6.59976C34.3259 4.61226 31.8509 3.67476 30.5384 5.17476L16.3446 21.2998C15.1259 22.706 16.1196 24.8998 17.9759 24.8998Z" fill="#086CAE "/>
<path d="M16.4375 8.90625H3.3125C2.54375 8.90625 1.90625 8.26875 1.90625 7.5C1.90625 6.73125 2.54375 6.09375 3.3125 6.09375H16.4375C17.2063 6.09375 17.8438 6.73125 17.8438 7.5C17.8438 8.26875 17.2063 8.90625 16.4375 8.90625Z" fill="#292D32"/>
<path d="M14.5625 38.9062H3.3125C2.54375 38.9062 1.90625 38.2687 1.90625 37.5C1.90625 36.7312 2.54375 36.0938 3.3125 36.0938H14.5625C15.3313 36.0938 15.9688 36.7312 15.9688 37.5C15.9688 38.2687 15.3313 38.9062 14.5625 38.9062Z" fill="#292D32"/>
<path d="M8.9375 23.9062H3.3125C2.54375 23.9062 1.90625 23.2687 1.90625 22.5C1.90625 21.7312 2.54375 21.0938 3.3125 21.0938H8.9375C9.70625 21.0938 10.3438 21.7312 10.3438 22.5C10.3438 23.2687 9.70625 23.9062 8.9375 23.9062Z" fill="#292D32"/>
</svg>
