<svg width="46" height="45" viewBox="0 0 46 45" fill="none" xmlns="http://www.w3.org/2000/svg">
<path d="M30.8563 3.75H15.1438C8.31875 3.75 4.25 7.81875 4.25 14.6438V30.3375C4.25 37.1813 8.31875 41.25 15.1438 41.25H30.8375C37.6625 41.25 41.7313 37.1813 41.7313 30.3563V14.6438C41.75 7.81875 37.6813 3.75 30.8563 3.75ZM33.3688 18.225L30.425 21.1688C30.1438 21.45 29.7875 21.5813 29.4313 21.5813C29.075 21.5813 28.7188 21.45 28.4375 21.1688C27.8938 20.625 27.8938 19.725 28.4375 19.1812L28.925 18.6938H19.4C17 18.6938 15.0313 20.6438 15.0313 23.0625C15.0313 25.4813 16.9813 27.4312 19.4 27.4312H28.625C29.3938 27.4312 30.0313 28.0688 30.0313 28.8375C30.0313 29.6063 29.3938 30.2437 28.625 30.2437H19.4C15.4438 30.2437 12.2188 27.0187 12.2188 23.0625C12.2188 19.1063 15.4438 15.8813 19.4 15.8813H29.0563L28.4375 15.2812C27.8938 14.7375 27.8938 13.8375 28.4375 13.2938C28.9813 12.75 29.8813 12.75 30.425 13.2938L33.3688 16.2375C33.9125 16.8 33.9125 17.6813 33.3688 18.225Z" fill="#121212"/>
</svg>
