<svg width="84" height="83" viewBox="0 0 84 83" fill="none" xmlns="http://www.w3.org/2000/svg">
<rect x="0.5" width="83" height="83" rx="12" fill="#F6F6F6"/>
<path d="M34.9851 58.8373C36.1981 57.6241 36.895 56.0754 37.0756 54.475C37.3208 52.3455 36.6111 50.1385 34.9851 48.5123C34.0173 47.5444 32.8301 46.8991 31.5784 46.6022C29.1911 45.9956 26.5457 46.628 24.6617 48.5123C23.3584 49.8159 22.6487 51.4808 22.5583 53.1973C22.4938 53.9329 22.5583 54.6944 22.7519 55.43C23.0487 56.6819 23.6939 57.8693 24.6617 58.8373C27.5136 61.6895 32.1333 61.6895 34.9851 58.8373ZM32.5591 52.3326C33.3076 52.3326 33.927 52.9521 33.927 53.7006C33.9141 54.4621 33.3076 55.0687 32.5462 55.0816L31.1913 55.0687L31.2042 56.3722C31.1913 57.1337 30.5848 57.7403 29.8234 57.7532C29.0621 57.7403 28.4556 57.1337 28.4427 56.3722L28.4556 55.0687L27.1006 55.0816C26.3393 55.0687 25.7328 54.4621 25.7199 53.7006C25.7328 53.3263 25.8876 52.9908 26.1328 52.7456C26.378 52.5003 26.7135 52.3455 27.0877 52.3326L28.4556 52.3326L28.4556 50.9129C28.4556 50.5257 28.6104 50.1901 28.8556 49.9449C29.1008 49.6997 29.4363 49.5448 29.8234 49.5448C30.5719 49.5448 31.1913 50.1643 31.1913 50.9129L31.1913 52.3326L32.5591 52.3326Z" fill="#086CAE "/>
<path d="M47.8018 26.2111V33.1469H45.0644V26.2111C45.0644 25.7183 44.6264 25.481 44.3344 25.481C44.2432 25.481 44.1519 25.4992 44.0607 25.5357L29.5889 30.9931C28.6217 31.3582 28.0012 32.2708 28.0012 33.3111V34.534C26.3405 35.7752 25.2638 37.7646 25.2638 40.0097V33.3111C25.2638 31.1391 26.596 29.2044 28.6217 28.4378L43.1117 22.9622C43.5132 22.8162 43.9329 22.7432 44.3344 22.7432C46.1594 22.7432 47.8018 24.2216 47.8018 26.2111Z" fill="#292D32"/>
<path d="M59.9403 45.4683V47.2935C59.9403 47.7863 59.5571 48.1878 59.0461 48.2061H56.3817C55.4145 48.2061 54.5385 47.4943 54.4655 46.5451C54.4107 45.9793 54.6297 45.45 54.9947 45.085C55.3232 44.7382 55.7795 44.5557 56.2722 44.5557H59.0278C59.5571 44.5739 59.9403 44.9755 59.9403 45.4683Z" fill="#292D32"/>
<path d="M56.2513 42.6366H58.1127C59.1164 42.6366 59.9377 41.8153 59.9377 40.8114V40.0083C59.9377 36.2301 56.8535 33.1455 53.0759 33.1455H32.1256C30.5744 33.1455 29.1509 33.6566 28.0012 34.5327C26.3405 35.7738 25.2638 37.7633 25.2638 40.0083V43.2572C25.2638 43.9508 25.9938 44.3888 26.6507 44.1698C27.6727 43.823 28.7494 43.6405 29.8261 43.6405C35.3557 43.6405 39.8633 48.1487 39.8633 53.6791C39.8633 54.9933 39.5166 56.4352 38.9691 57.7128C38.6771 58.3699 39.1333 59.1548 39.8451 59.1548H53.0759C56.8535 59.1548 59.9377 56.0702 59.9377 52.292V51.9452C59.9377 50.9413 59.1164 50.12 58.1127 50.12H56.525C54.7731 50.12 53.0941 49.0431 52.6379 47.3456C52.2729 45.9585 52.7109 44.6078 53.6234 43.7317C54.2986 43.0381 55.2293 42.6366 56.2513 42.6366ZM46.2506 42.2716H37.1259C36.3777 42.2716 35.7572 41.651 35.7572 40.9027C35.7572 40.1543 36.3777 39.5337 37.1259 39.5337H46.2506C46.9988 39.5337 47.6193 40.1543 47.6193 40.9027C47.6193 41.651 46.9988 42.2716 46.2506 42.2716Z" fill="#292D32"/>
</svg>
