<svg width="84" height="83" viewBox="0 0 84 83" fill="none" xmlns="http://www.w3.org/2000/svg">
<rect x="0.5" width="83" height="83" rx="12" fill="#F6F6F6"/>
<path d="M53.2688 22.75V25.5625C54.5063 25.5625 55.6875 26.0687 56.55 26.9125C57.45 27.8312 57.9375 29.0125 57.9375 30.25V34.7875C57.9375 36.175 57.3188 36.8125 55.9125 36.8125H52.3125V26.5188C52.3125 25.9938 52.7438 25.5625 53.2688 25.5625V22.75ZM53.2688 22.75C51.1875 22.75 49.5 24.4375 49.5 26.5188V39.625H55.9125C58.875 39.625 60.75 37.75 60.75 34.7875V30.25C60.75 28.1875 59.9062 26.3125 58.5562 24.9438C57.1875 23.5938 55.3313 22.7687 53.2688 22.75C53.2875 22.75 53.2688 22.75 53.2688 22.75Z" fill="#086CAE "/>
<path d="M32.625 22.75H30.75C25.125 22.75 23.25 26.1063 23.25 30.25V32.125V58.375C23.25 59.9313 25.0125 60.8125 26.25 59.875L29.4562 57.475C30.2062 56.9125 31.2563 56.9875 31.9313 57.6625L35.0437 60.7938C35.775 61.525 36.975 61.525 37.7063 60.7938L40.8563 57.6438C41.5125 56.9875 42.5625 56.9125 43.2937 57.475L46.5 59.875C47.7375 60.7938 49.5 59.9125 49.5 58.375V26.5C49.5 24.4375 51.1875 22.75 53.25 22.75H32.625ZM41.5312 39.1563H37.7812V42.9063C37.7812 43.675 37.1438 44.3125 36.375 44.3125C35.6062 44.3125 34.9688 43.675 34.9688 42.9063V39.1563H31.2188C30.45 39.1563 29.8125 38.5188 29.8125 37.75C29.8125 36.9813 30.45 36.3438 31.2188 36.3438H34.9688V32.5938C34.9688 31.825 35.6062 31.1875 36.375 31.1875C37.1438 31.1875 37.7812 31.825 37.7812 32.5938V36.3438H41.5312C42.3 36.3438 42.9375 36.9813 42.9375 37.75C42.9375 38.5188 42.3 39.1563 41.5312 39.1563Z" fill="#292D32"/>
</svg>
