<svg width="84" height="83" viewBox="0 0 84 83" fill="none" xmlns="http://www.w3.org/2000/svg">
<rect x="0.5" width="83" height="83" rx="12" fill="#F6F6F6"/>
<path d="M49.0875 22.75H34.9125C27.825 22.75 26.0625 24.6437 26.0625 32.2V53.3125C26.0625 58.3 28.8 59.4812 32.1188 55.9188L32.1375 55.9C33.675 54.2687 36.0188 54.4 37.35 56.1812L39.2437 58.7125C40.7625 60.7188 43.2188 60.7188 44.7375 58.7125L46.6313 56.1812C47.9813 54.3812 50.325 54.25 51.8625 55.9C55.2 59.4625 57.9187 58.2812 57.9187 53.2937V32.2C57.9375 24.6437 56.175 22.75 49.0875 22.75ZM47.325 37.7312L46.3875 38.6875H46.3687L40.6875 44.3687C40.4438 44.6125 39.9375 44.875 39.5813 44.9125L37.05 45.2875C36.1312 45.4187 35.4938 44.7625 35.625 43.8625L35.9812 41.3125C36.0375 40.9562 36.2812 40.4688 36.525 40.2062L42.225 34.525L43.1625 33.5687C43.7812 32.95 44.475 32.5 45.225 32.5C45.8625 32.5 46.5562 32.8 47.325 33.5687C49.0125 35.2562 48.4688 36.5875 47.325 37.7312Z" fill="#086CAE "/>
</svg>
