<svg width="18" height="24" viewBox="0 0 18 24" fill="none" xmlns="http://www.w3.org/2000/svg">
<path d="M14.5915 6.23824C14.7023 6.34898 14.8818 6.34898 14.9925 6.23824L17.0976 4.13314C17.2083 4.0224 17.2083 3.84289 17.0976 3.73215L13.4484 0.0830204C13.3377 -0.0276735 13.1582 -0.0276735 13.0475 0.0830204L10.9424 2.18811C10.8317 2.29886 10.8317 2.47837 10.9424 2.58911L14.5915 6.23824Z" fill="black"/>
<path d="M4.58631 16.6435L6.6914 14.5384C6.80215 14.4277 6.8021 14.2482 6.6914 14.1375L3.04223 10.4883C2.93154 10.3776 2.75202 10.3776 2.64128 10.4883L0.536188 12.5935C0.425445 12.7042 0.425445 12.8837 0.536139 12.9944L4.18527 16.6435C4.29606 16.7543 4.47557 16.7543 4.58631 16.6435Z" fill="black"/>
<path d="M7.73978 13.7995C7.85048 13.9103 8.03004 13.9103 8.14078 13.7996L12.2007 9.73973C12.1833 9.61385 12.1735 9.48552 12.1735 9.3549C12.1735 8.23434 12.8375 7.26641 13.7923 6.82236L9.89484 2.92485C9.78409 2.81411 9.60463 2.81411 9.49389 2.92485L3.37996 9.03883C3.26922 9.14952 3.26917 9.32903 3.37986 9.43973L7.73978 13.7995Z" fill="black"/>
<path d="M16.7768 9.35526C16.7768 8.35437 15.9655 7.54302 14.9646 7.54297C13.9637 7.54302 13.1523 8.35437 13.1523 9.35526C13.1523 10.3561 13.9638 11.1675 14.9645 11.1675H14.9646C15.9655 11.1675 16.7768 10.3562 16.7768 9.35526Z" fill="black"/>
<path d="M15.023 12.1452C15.3905 12.8819 15.585 13.6992 15.585 14.5466C15.585 15.9857 15.0246 17.3387 14.0069 18.3563C12.5715 19.7917 10.5211 20.246 8.69617 19.7198C8.89958 19.6168 9.03927 19.4063 9.03927 19.1627V18.277H0.761719V19.1627C0.761719 19.5078 1.04149 19.7874 1.3865 19.7874H5.04905C5.65018 20.3781 6.32835 20.8442 7.05129 21.1859C5.21666 21.6377 3.92311 22.7272 3.92311 23.9997H13.9596C13.9596 23.0473 13.235 22.1975 12.1014 21.6408C13.3077 21.3191 14.4477 20.6862 15.3923 19.7417C16.78 18.354 17.5442 16.5091 17.5442 14.5466C17.5442 13.4464 17.3032 12.3835 16.8475 11.417C16.346 11.8755 15.7047 12.1316 15.023 12.1452Z" fill="black"/>
</svg>
