<svg width="32" height="32" viewBox="0 0 32 32" fill="none" xmlns="http://www.w3.org/2000/svg">
<path d="M16.6696 19.6667H13.3363C12.7896 19.6667 12.3363 19.2133 12.3363 18.6667C12.3363 18.12 12.7896 17.6667 13.3363 17.6667H16.6696C20.1629 17.6667 23.0029 14.8267 23.0029 11.3333C23.0029 7.84 20.1629 5 16.6696 5H10.0029C6.50959 5 3.66959 7.84 3.66959 11.3333C3.66959 12.8 4.18958 14.2267 5.12291 15.36C5.46958 15.7867 5.41625 16.4133 4.98958 16.7733C4.56292 17.12 3.93625 17.0667 3.57625 16.64C2.33625 15.1467 1.65625 13.2667 1.65625 11.3333C1.65625 6.73333 5.38958 3 9.98958 3H16.6562C21.2562 3 24.9896 6.73333 24.9896 11.3333C24.9896 15.9333 21.2696 19.6667 16.6696 19.6667Z" fill="#A9A9AC"/>
<path d="M22 29.0007H15.3333C10.7333 29.0007 7 25.2673 7 20.6673C7 16.0673 10.7333 12.334 15.3333 12.334H18.6667C19.2133 12.334 19.6667 12.7873 19.6667 13.334C19.6667 13.8807 19.2133 14.334 18.6667 14.334H15.3333C11.84 14.334 9 17.174 9 20.6673C9 24.1607 11.84 27.0007 15.3333 27.0007H22C25.4933 27.0007 28.3333 24.1607 28.3333 20.6673C28.3333 19.2007 27.8133 17.774 26.88 16.6407C26.5333 16.214 26.5867 15.5873 27.0133 15.2273C27.44 14.8673 28.0667 14.934 28.4267 15.3606C29.6667 16.854 30.3467 18.734 30.3467 20.6673C30.3333 25.2673 26.6 29.0007 22 29.0007Z" fill="#A9A9AC"/>
</svg>
