<svg width="32" height="32" viewBox="0 0 32 32" fill="none" xmlns="http://www.w3.org/2000/svg">
<path d="M9.33333 16.0003C9.33333 14.5276 8.13943 13.3337 6.66667 13.3337C5.19391 13.3337 4 14.5276 4 16.0003C4 17.4731 5.19391 18.667 6.66667 18.667C8.13943 18.667 9.33333 17.4731 9.33333 16.0003Z" fill="#A2A2A2"/>
<path d="M18.6654 16.0003C18.6654 14.5276 17.4715 13.3337 15.9987 13.3337C14.5259 13.3337 13.332 14.5276 13.332 16.0003C13.332 17.4731 14.5259 18.667 15.9987 18.667C17.4715 18.667 18.6654 17.4731 18.6654 16.0003Z" fill="#A2A2A2"/>
<path d="M28.0013 16.0003C28.0013 14.5276 26.8074 13.3337 25.3346 13.3337C23.8619 13.3337 22.668 14.5276 22.668 16.0003C22.668 17.4731 23.8619 18.667 25.3346 18.667C26.8074 18.667 28.0013 17.4731 28.0013 16.0003Z" fill="#A2A2A2"/>
</svg>
