<svg width="32" height="32" viewBox="0 0 32 32" fill="none" xmlns="http://www.w3.org/2000/svg">
<path d="M26.919 18.7458L25.4123 16.2391C25.079 15.6924 24.7856 14.6391 24.7856 13.9991V11.5058C24.7856 6.66575 20.8523 2.73242 16.0256 2.73242C11.1856 2.74576 7.2523 6.66575 7.2523 11.5058V13.9858C7.2523 14.6258 6.95897 15.6791 6.63897 16.2258L5.1323 18.7324C4.55897 19.7058 4.42563 20.8124 4.78563 21.7724C5.14563 22.7458 5.95897 23.5191 7.02564 23.8658C8.46564 24.3458 9.91897 24.6924 11.399 24.9458C11.5456 24.9724 11.6923 24.9858 11.839 25.0124C12.0256 25.0391 12.2256 25.0658 12.4256 25.0924C12.7723 25.1458 13.119 25.1858 13.479 25.2124C14.319 25.2924 15.1723 25.3324 16.0256 25.3324C16.8656 25.3324 17.7056 25.2924 18.5323 25.2124C18.839 25.1858 19.1456 25.1591 19.439 25.1191C19.679 25.0924 19.919 25.0658 20.159 25.0258C20.3056 25.0124 20.4523 24.9858 20.599 24.9591C22.0923 24.7191 23.5723 24.3458 25.0123 23.8658C26.039 23.5191 26.8256 22.7458 27.199 21.7591C27.5723 20.7591 27.4656 19.6658 26.919 18.7458ZM16.999 13.3324C16.999 13.8924 16.5456 14.3458 15.9856 14.3458C15.4256 14.3458 14.9723 13.8924 14.9723 13.3324V9.19909C14.9723 8.63909 15.4256 8.18576 15.9856 8.18576C16.5456 8.18576 16.999 8.63909 16.999 9.19909V13.3324Z" fill="#32A840"/>
<path d="M19.7755 26.6793C19.2155 28.226 17.7355 29.3327 16.0022 29.3327C14.9489 29.3327 13.9089 28.906 13.1755 28.146C12.7489 27.746 12.4289 27.2127 12.2422 26.666C12.4155 26.6927 12.5889 26.706 12.7755 26.7327C13.0822 26.7727 13.4022 26.8127 13.7222 26.8393C14.4822 26.906 15.2555 26.946 16.0289 26.946C16.7889 26.946 17.5489 26.906 18.2955 26.8393C18.5755 26.8127 18.8555 26.7993 19.1222 26.7593C19.3355 26.7327 19.5489 26.706 19.7755 26.6793Z" fill="#32A840"/>
</svg>
