<svg width="32" height="32" viewBox="0 0 32 32" fill="none" xmlns="http://www.w3.org/2000/svg">
<path d="M26.9209 18.7467L25.4143 16.2401C25.0809 15.6934 24.7876 14.6401 24.7876 14.0001V11.5067C24.7876 6.66673 20.8543 2.7334 16.0276 2.7334C11.1876 2.74673 7.25425 6.66673 7.25425 11.5067V13.9867C7.25425 14.6267 6.96092 15.6801 6.64092 16.2267L5.13425 18.7334C4.56092 19.7067 4.42759 20.8134 4.78759 21.7734C5.14759 22.7467 5.96092 23.5201 7.02759 23.8667C8.46759 24.3467 9.92092 24.6934 11.4009 24.9467C11.5476 24.9734 11.6943 24.9867 11.8409 25.0134C12.0276 25.0401 12.2276 25.0667 12.4276 25.0934C12.7743 25.1467 13.1209 25.1867 13.4809 25.2134C14.3209 25.2934 15.1743 25.3334 16.0276 25.3334C16.8676 25.3334 17.7076 25.2934 18.5343 25.2134C18.8409 25.1867 19.1476 25.1601 19.4409 25.1201C19.6809 25.0934 19.9209 25.0667 20.1609 25.0267C20.3076 25.0134 20.4543 24.9867 20.6009 24.9601C22.0943 24.7201 23.5743 24.3467 25.0143 23.8667C26.0409 23.5201 26.8276 22.7467 27.2009 21.7601C27.5743 20.7601 27.4676 19.6667 26.9209 18.7467ZM17.0009 13.3334C17.0009 13.8934 16.5476 14.3467 15.9876 14.3467C15.4276 14.3467 14.9743 13.8934 14.9743 13.3334V9.20007C14.9743 8.64007 15.4276 8.18673 15.9876 8.18673C16.5476 8.18673 17.0009 8.64007 17.0009 9.20007V13.3334Z" fill="#A9A9AC"/>
<path d="M19.7736 26.6803C19.2136 28.227 17.7336 29.3337 16.0002 29.3337C14.9469 29.3337 13.9069 28.907 13.1736 28.147C12.7469 27.747 12.4269 27.2137 12.2402 26.667C12.4136 26.6937 12.5869 26.707 12.7736 26.7337C13.0802 26.7737 13.4002 26.8137 13.7202 26.8403C14.4802 26.907 15.2536 26.947 16.0269 26.947C16.7869 26.947 17.5469 26.907 18.2936 26.8403C18.5736 26.8137 18.8536 26.8003 19.1202 26.7603C19.3336 26.7337 19.5469 26.707 19.7736 26.6803Z" fill="#A9A9AC"/>
</svg>
