<svg width="41" height="40" viewBox="0 0 41 40" fill="none" xmlns="http://www.w3.org/2000/svg">
<rect x="0.671875" width="40" height="40" rx="8" fill="#F6F6F6"/>
<path d="M24.4716 10.2105C24.0616 9.80048 23.3516 10.0805 23.3516 10.6505V14.1405C23.3516 15.6005 24.5916 16.8105 26.1016 16.8105C27.0516 16.8205 28.3716 16.8205 29.5016 16.8205C30.0716 16.8205 30.3716 16.1505 29.9716 15.7505C28.5316 14.3005 25.9516 11.6905 24.4716 10.2105Z" fill="#086CAE "/>
<path d="M29.1719 18.19H26.2819C23.9119 18.19 21.9819 16.26 21.9819 13.89V11C21.9819 10.45 21.5319 10 20.9819 10H16.7419C13.6619 10 11.1719 12 11.1719 15.57V24.43C11.1719 28 13.6619 30 16.7419 30H24.6019C27.6819 30 30.1719 28 30.1719 24.43V19.19C30.1719 18.64 29.7219 18.19 29.1719 18.19ZM20.1719 25.75H16.1719C15.7619 25.75 15.4219 25.41 15.4219 25C15.4219 24.59 15.7619 24.25 16.1719 24.25H20.1719C20.5819 24.25 20.9219 24.59 20.9219 25C20.9219 25.41 20.5819 25.75 20.1719 25.75ZM22.1719 21.75H16.1719C15.7619 21.75 15.4219 21.41 15.4219 21C15.4219 20.59 15.7619 20.25 16.1719 20.25H22.1719C22.5819 20.25 22.9219 20.59 22.9219 21C22.9219 21.41 22.5819 21.75 22.1719 21.75Z" fill="#086CAE "/>
</svg>
