<svg width="41" height="40" viewBox="0 0 41 40" fill="none" xmlns="http://www.w3.org/2000/svg">
<rect x="0.335938" width="40" height="40" rx="8" fill="#F6F6F6"/>
<path d="M20.3359 10C14.8159 10 10.3359 14.48 10.3359 20C10.3359 25.52 14.8159 30 20.3359 30C25.8559 30 30.3359 25.52 30.3359 20C30.3359 14.48 25.8559 10 20.3359 10ZM17.0659 15.66C17.8759 15.66 18.5459 16.32 18.5459 17.14C18.5459 17.95 17.8859 18.62 17.0659 18.62C16.2559 18.62 15.5859 17.96 15.5859 17.14C15.5859 16.32 16.2459 15.66 17.0659 15.66ZM17.1859 23.8C17.0359 23.95 16.8459 24.02 16.6559 24.02C16.4659 24.02 16.2759 23.95 16.1259 23.8C15.8359 23.51 15.8359 23.03 16.1259 22.74L22.6759 16.19C22.9659 15.9 23.4459 15.9 23.7359 16.19C24.0259 16.48 24.0259 16.96 23.7359 17.25L17.1859 23.8ZM23.6059 24.34C22.7959 24.34 22.1259 23.68 22.1259 22.86C22.1259 22.05 22.7859 21.38 23.6059 21.38C24.4159 21.38 25.0859 22.04 25.0859 22.86C25.0859 23.68 24.4259 24.34 23.6059 24.34Z" fill="#292D32"/>
</svg>
