<svg width="22" height="24" viewBox="0 0 22 24" fill="none" xmlns="http://www.w3.org/2000/svg">
<path d="M1.99999 0H14.7447L21.5 6.72902V22.5C21.5 23.3287 20.828 24 20 24H1.99999C1.17196 24 0.5 23.3287 0.5 22.5V1.49999C0.5 0.671265 1.17204 0 1.99999 0Z" fill="#E2574C"/>
<path d="M21.4782 6.74964H16.25C15.422 6.74964 14.75 6.07768 14.75 5.24966V0.0146484L21.4782 6.74964Z" fill="#B53629"/>
<path d="M15.8738 11.372C16.1251 11.372 16.2481 11.153 16.2481 10.9408C16.2481 10.721 16.1198 10.5088 15.8738 10.5088H14.4428C14.1631 10.5088 14.0071 10.7405 14.0071 10.9963V14.513C14.0071 14.8265 14.1856 15.0005 14.4271 15.0005C14.6671 15.0005 14.8463 14.8265 14.8463 14.513V13.5478H15.7119C15.9804 13.5478 16.1146 13.328 16.1146 13.1098C16.1146 12.8961 15.9804 12.6838 15.7119 12.6838H14.8463V11.372H15.8738ZM11.0371 10.5088H9.99004C9.70578 10.5088 9.50401 10.7038 9.50401 10.9933V14.516C9.50401 14.8753 9.79425 14.9878 10.002 14.9878H11.1008C12.4012 14.9878 13.26 14.1321 13.26 12.8113C13.2593 11.4148 12.4508 10.5088 11.0371 10.5088ZM11.0873 14.1193H10.4491V11.3773H11.0243C11.8951 11.3773 12.2738 11.9616 12.2738 12.7678C12.2738 13.5223 11.9018 14.1193 11.0873 14.1193ZM7.25182 10.5088H6.21458C5.92132 10.5088 5.75781 10.7023 5.75781 10.9963V14.513C5.75781 14.8265 5.9453 15.0005 6.19728 15.0005C6.44925 15.0005 6.63674 14.8265 6.63674 14.513V13.4863H7.28698C8.08947 13.4863 8.75173 12.9177 8.75173 12.0035C8.75181 11.1088 8.11283 10.5088 7.25182 10.5088ZM7.23459 12.6613H6.63682V11.3346H7.23459C7.6036 11.3346 7.83834 11.6225 7.83834 11.9983C7.83757 12.3734 7.6036 12.6613 7.23459 12.6613Z" fill="white"/>
</svg>
