<svg width="40" height="40" viewBox="0 0 40 40" fill="none" xmlns="http://www.w3.org/2000/svg">
<rect width="40" height="40" rx="20" fill="#086CAE " fill-opacity="0.1"/>
<path d="M16.25 13.75C15.84 13.75 15.5 13.41 15.5 13V10C15.5 9.59 15.84 9.25 16.25 9.25C16.66 9.25 17 9.59 17 10V13C17 13.41 16.66 13.75 16.25 13.75Z" fill="#086CAE "/>
<path d="M23.75 13.75C23.34 13.75 23 13.41 23 13V10C23 9.59 23.34 9.25 23.75 9.25C24.16 9.25 24.5 9.59 24.5 10V13C24.5 13.41 24.16 13.75 23.75 13.75Z" fill="#086CAE "/>
<path d="M19.9996 22.09C20.5196 22.09 20.8996 21.78 20.8996 21.29C20.8996 20.79 20.5196 20.5 19.9996 20.5C19.4796 20.5 19.0996 20.79 19.0996 21.29C19.0996 21.78 19.4796 22.09 19.9996 22.09Z" fill="#292D32"/>
<path d="M19.9994 24.9996C20.629 24.9996 21.1394 24.5833 21.1394 24.0696C21.1394 23.556 20.629 23.1396 19.9994 23.1396C19.3698 23.1396 18.8594 23.556 18.8594 24.0696C18.8594 24.5833 19.3698 24.9996 19.9994 24.9996Z" fill="#292D32"/>
<path d="M27.57 12.5C26.91 12.01 25.96 12.48 25.96 13.31V13.41C25.96 14.58 25.12 15.66 23.95 15.78C22.6 15.92 21.46 14.86 21.46 13.54V12.5C21.46 11.95 21.01 11.5 20.46 11.5H19.54C18.99 11.5 18.54 11.95 18.54 12.5V13.54C18.54 14.33 18.13 15.03 17.51 15.42C17.42 15.48 17.32 15.53 17.22 15.58C17.13 15.63 17.03 15.67 16.92 15.7C16.8 15.74 16.67 15.77 16.53 15.78C16.37 15.8 16.21 15.8 16.05 15.78C15.91 15.77 15.78 15.74 15.66 15.7C15.56 15.67 15.46 15.63 15.36 15.58C15.26 15.53 15.16 15.48 15.07 15.42C14.44 14.98 14.04 14.22 14.04 13.41V13.31C14.04 12.54 13.22 12.08 12.57 12.41C12.56 12.42 12.55 12.42 12.54 12.43C12.5 12.45 12.47 12.47 12.43 12.5C12.4 12.53 12.36 12.55 12.33 12.58C12.05 12.8 11.8 13.05 11.59 13.32C11.48 13.44 11.39 13.57 11.31 13.7C11.3 13.71 11.29 13.72 11.28 13.74C11.19 13.87 11.11 14.02 11.04 14.16C11.02 14.18 11.01 14.19 11.01 14.21C10.95 14.33 10.89 14.45 10.85 14.58C10.82 14.63 10.81 14.67 10.79 14.72C10.73 14.87 10.69 15.02 10.65 15.17C10.61 15.31 10.58 15.46 10.56 15.61C10.54 15.72 10.53 15.83 10.52 15.95C10.51 16.09 10.5 16.23 10.5 16.37V25.13C10.5 27.82 12.68 30 15.37 30H24.63C27.32 30 29.5 27.82 29.5 25.13V16.37C29.5 14.78 28.74 13.39 27.57 12.5ZM20 26.25C18.45 26.25 17.5 25.48 17.5 24.24C17.5 23.56 17.85 22.97 18.46 22.62C18.02 22.31 17.73 21.85 17.73 21.22C17.73 19.92 18.77 19.25 20 19.25C21.23 19.25 22.26 19.92 22.26 21.22C22.26 21.85 21.98 22.31 21.53 22.62C22.15 22.97 22.5 23.56 22.5 24.24C22.5 25.48 21.54 26.25 20 26.25Z" fill="#292D32"/>
</svg>
