<svg width="40" height="40" viewBox="0 0 40 40" fill="none" xmlns="http://www.w3.org/2000/svg">
<rect width="40" height="40" rx="20" fill="#086CAE " fill-opacity="0.1"/>
<path d="M25 30H15C14.59 30 14.25 29.66 14.25 29.25C14.25 28.84 14.59 28.5 15 28.5H25C25.41 28.5 25.75 28.84 25.75 29.25C25.75 29.66 25.41 30 25 30Z" fill="#086CAE "/>
<path d="M28.3502 13.52L24.3502 16.38C23.8202 16.76 23.0602 16.53 22.8302 15.92L20.9402 10.88C20.6202 10.01 19.3902 10.01 19.0702 10.88L17.1702 15.91C16.9402 16.53 16.1902 16.76 15.6602 16.37L11.6602 13.51C10.8602 12.95 9.80022 13.74 10.1302 14.67L14.2902 26.32C14.4302 26.72 14.8102 26.98 15.2302 26.98H24.7602C25.1802 26.98 25.5602 26.71 25.7002 26.32L29.8602 14.67C30.2002 13.74 29.1402 12.95 28.3502 13.52ZM22.5002 22.75H17.5002C17.0902 22.75 16.7502 22.41 16.7502 22C16.7502 21.59 17.0902 21.25 17.5002 21.25H22.5002C22.9102 21.25 23.2502 21.59 23.2502 22C23.2502 22.41 22.9102 22.75 22.5002 22.75Z" fill="#086CAE "/>
</svg>
