<svg width="40" height="40" viewBox="0 0 40 40" fill="none" xmlns="http://www.w3.org/2000/svg">
<rect width="40" height="40" rx="20" fill="#086CAE " fill-opacity="0.1"/>
<path d="M25.5291 15.77C25.4591 15.76 25.3891 15.76 25.3191 15.77C23.7691 15.72 22.5391 14.45 22.5391 12.89C22.5391 11.3 23.8291 10 25.4291 10C27.0191 10 28.3191 11.29 28.3191 12.89C28.3091 14.45 27.0791 15.72 25.5291 15.77Z" fill="#086CAE "/>
<path d="M28.7896 22.7004C27.6696 23.4504 26.0996 23.7304 24.6496 23.5404C25.0296 22.7204 25.2296 21.8104 25.2396 20.8504C25.2396 19.8504 25.0196 18.9004 24.5996 18.0704C26.0796 17.8704 27.6496 18.1504 28.7796 18.9004C30.3596 19.9404 30.3596 21.6504 28.7896 22.7004Z" fill="#292D32"/>
<path d="M14.4402 15.77C14.5102 15.76 14.5802 15.76 14.6502 15.77C16.2002 15.72 17.4302 14.45 17.4302 12.89C17.4302 11.29 16.1402 10 14.5402 10C12.9502 10 11.6602 11.29 11.6602 12.89C11.6602 14.45 12.8902 15.72 14.4402 15.77Z" fill="#292D32"/>
<path d="M14.5491 20.8496C14.5491 21.8196 14.7591 22.7396 15.1391 23.5696C13.7291 23.7196 12.2591 23.4196 11.1791 22.7096C9.59914 21.6596 9.59914 19.9496 11.1791 18.8996C12.2491 18.1796 13.7591 17.8896 15.1791 18.0496C14.7691 18.8896 14.5491 19.8396 14.5491 20.8496Z" fill="#292D32"/>
<path d="M20.1208 23.87C20.0408 23.86 19.9508 23.86 19.8608 23.87C18.0208 23.81 16.5508 22.3 16.5508 20.44C16.5608 18.54 18.0908 17 20.0008 17C21.9008 17 23.4408 18.54 23.4408 20.44C23.4308 22.3 21.9708 23.81 20.1208 23.87Z" fill="#292D32"/>
<path d="M16.8708 25.9396C15.3608 26.9496 15.3608 28.6096 16.8708 29.6096C18.5908 30.7596 21.4108 30.7596 23.1308 29.6096C24.6408 28.5996 24.6408 26.9396 23.1308 25.9396C21.4208 24.7896 18.6008 24.7896 16.8708 25.9396Z" fill="#292D32"/>
</svg>
