<svg width="24" height="24" viewBox="0 0 24 24" fill="none" xmlns="http://www.w3.org/2000/svg">
<path d="M9.98589 22.5496C9.93589 22.5496 9.88589 22.5496 9.83589 22.5296C6.00589 21.7496 2.89589 18.9296 1.73589 15.1896C1.61589 14.7896 1.8359 14.3696 2.2259 14.2496C2.6259 14.1296 3.04589 14.3496 3.16589 14.7396C4.16589 17.9596 6.83589 20.3796 10.1359 21.0496C10.5459 21.1296 10.8059 21.5296 10.7159 21.9396C10.6459 22.2996 10.3259 22.5496 9.98589 22.5496Z" fill="#1F1F1F"/>
<path d="M21.9483 11.73C21.5683 11.73 21.2383 11.44 21.1983 11.06C20.7183 6.32 16.7583 2.75 11.9983 2.75C7.22827 2.75 3.27827 6.32 2.79827 11.05C2.75827 11.46 2.39827 11.77 1.97827 11.72C1.56827 11.68 1.26827 11.31 1.30827 10.9C1.86827 5.4 6.46827 1.25 11.9983 1.25C17.5383 1.25 22.1383 5.4 22.6883 10.9C22.7283 11.31 22.4283 11.68 22.0183 11.72C21.9983 11.73 21.9683 11.73 21.9483 11.73Z" fill="#1F1F1F"/>
<path d="M14.0101 22.5508C13.6601 22.5508 13.3501 22.3108 13.2801 21.9508C13.2001 21.5408 13.4601 21.1508 13.8601 21.0708C17.1401 20.4008 19.8101 18.0008 20.8201 14.8008C20.9401 14.4008 21.3701 14.1808 21.7601 14.3108C22.1601 14.4308 22.3701 14.8608 22.2501 15.2508C21.0701 18.9708 17.9701 21.7608 14.1601 22.5408C14.1101 22.5408 14.0601 22.5508 14.0101 22.5508Z" fill="#1F1F1F"/>
</svg>
