<svg width="46" height="45" viewBox="0 0 46 45" fill="none" xmlns="http://www.w3.org/2000/svg">
<path d="M16.043 11.7937C15.2555 11.7937 14.6367 11.1562 14.6367 10.3875V5.15625C14.6367 4.3875 15.2555 3.75 16.043 3.75C16.8305 3.75 17.4492 4.3875 17.4492 5.15625V10.3688C17.4492 11.1563 16.8305 11.7937 16.043 11.7937Z" fill="#121212"/>
<path d="M29.957 11.7937C29.1695 11.7937 28.5508 11.1562 28.5508 10.3875V5.15625C28.5508 4.36875 29.1883 3.75 29.957 3.75C30.7445 3.75 31.3633 4.3875 31.3633 5.15625V10.3688C31.3633 11.1563 30.7445 11.7937 29.957 11.7937Z" fill="#121212"/>
<path d="M40.8117 29.6624C40.8117 29.9437 40.718 30.2249 40.4742 30.4687C37.7555 33.2062 32.918 38.0812 30.143 40.8749C29.8992 41.1374 29.5805 41.2499 29.2617 41.2499C28.643 41.2499 28.043 40.7624 28.043 40.0499V33.4874C28.043 30.7499 30.368 28.4812 33.218 28.4812C34.9992 28.4624 37.4742 28.4624 39.593 28.4624C40.3242 28.4624 40.8117 29.0437 40.8117 29.6624Z" fill="#292D32"/>
<path d="M40.8117 29.6624C40.8117 29.9437 40.718 30.2249 40.4742 30.4687C37.7555 33.2062 32.918 38.0812 30.143 40.8749C29.8992 41.1374 29.5805 41.2499 29.2617 41.2499C28.643 41.2499 28.043 40.7624 28.043 40.0499V33.4874C28.043 30.7499 30.368 28.4812 33.218 28.4812C34.9992 28.4624 37.4742 28.4624 39.593 28.4624C40.3242 28.4624 40.8117 29.0437 40.8117 29.6624Z" fill="#292D32"/>
<path d="M37.1937 8.4375C35.9562 7.51875 34.175 8.4 34.175 9.95625V10.1437C34.175 12.3375 32.6 14.3625 30.4062 14.5875C27.875 14.85 25.7375 12.8625 25.7375 10.3875V8.4375C25.7375 7.40625 24.8937 6.5625 23.8625 6.5625H22.1375C21.1062 6.5625 20.2625 7.40625 20.2625 8.4375V10.1437C20.2625 11.7937 19.3813 13.3313 18.0125 14.0813C17.9375 14.1375 17.8625 14.175 17.7875 14.2125C17.7688 14.2125 17.7687 14.2313 17.75 14.2313C17.6187 14.2875 17.4875 14.3437 17.3375 14.4C17.3 14.4187 17.2625 14.4187 17.225 14.4375C17 14.5125 16.7562 14.5688 16.4937 14.5875H16.475C16.1938 14.625 15.8938 14.625 15.6125 14.5875H15.5938C15.3313 14.5688 15.0875 14.5125 14.8625 14.4375C14.675 14.3812 14.4875 14.3063 14.3 14.2125C12.8375 13.5563 11.825 12.0938 11.825 10.3875V9.95625C11.825 8.5125 10.2875 7.65 9.06875 8.26875C9.05 8.2875 9.03125 8.2875 9.0125 8.30625H8.99375C8.8625 8.4 8.75 8.49375 8.61875 8.5875C8.4125 8.75625 8.20625 8.925 8.01875 9.1125C7.8875 9.24375 7.75625 9.375 7.64375 9.50625C7.49375 9.65625 7.3625 9.80625 7.23125 9.975C7.1375 10.0875 7.025 10.2 6.95 10.3313C6.85625 10.4438 6.78125 10.575 6.70625 10.6875C6.6875 10.7062 6.66875 10.725 6.65 10.7625C6.48125 11.0062 6.33125 11.2875 6.2 11.55C6.1625 11.5875 6.14375 11.6063 6.14375 11.6438C6.03125 11.8688 5.91875 12.0938 5.84375 12.3375C5.7875 12.4313 5.76875 12.5062 5.73125 12.6C5.69375 12.675 5.675 12.7687 5.6375 12.8438C5.58125 13.0312 5.525 13.2375 5.46875 13.4438C5.39375 13.7063 5.3375 13.9875 5.3 14.2688C5.2625 14.475 5.24375 14.6812 5.225 14.9062C5.20625 15.1687 5.1875 15.4312 5.1875 15.6937V32.1187C5.1875 37.1625 9.275 41.25 14.3187 41.25H23.3562C24.3875 41.25 25.2312 40.4062 25.2312 39.375V33.4875C25.2312 29.175 28.8125 25.6687 33.2188 25.6687C34.2125 25.65 36.6313 25.65 38.9375 25.65C39.9688 25.65 40.8125 24.8063 40.8125 23.775V15.6937C40.8125 12.7125 39.3875 10.1063 37.1937 8.4375ZM21.3687 29.8312C21.2 30.3937 20.675 30.7875 20.0563 30.7875H13.2312C13.1375 30.7875 13.0625 30.7875 12.9875 30.75C12.3125 30.6562 11.825 30.075 11.825 29.3813C11.825 28.5938 12.4437 27.9562 13.2312 27.9562H20.0563C20.825 27.9562 21.4625 28.5938 21.4625 29.3813C21.4625 29.5312 21.4438 29.7 21.3687 29.8312ZM26.5812 22.875C26.4125 23.4375 25.8875 23.8312 25.2687 23.8312H13.2312C13.1375 23.8312 13.0625 23.8312 12.9875 23.7937C12.3125 23.7 11.825 23.1187 11.825 22.425C11.825 21.6375 12.4437 21 13.2312 21H25.2687C26.0562 21 26.675 21.6375 26.675 22.425C26.675 22.575 26.6562 22.7437 26.5812 22.875Z" fill="#292D32"/>
</svg>
