<svg width="46" height="45" viewBox="0 0 46 45" fill="none" xmlns="http://www.w3.org/2000/svg">
<path d="M41.7499 23.6625V27.525C41.7499 28.575 40.8874 29.4375 39.8187 29.4375H36.1999C34.1749 29.4375 32.3187 27.9563 32.1499 25.9312C32.0374 24.75 32.4874 23.6437 33.2749 22.875C33.9687 22.1625 34.9249 21.75 35.9749 21.75H39.8187C40.8874 21.75 41.7499 22.6125 41.7499 23.6625Z" fill="#086CAE "/>
<path d="M29.3375 26.175C29.1688 24.2063 29.8813 22.275 31.3063 20.8687C32.5063 19.65 34.175 18.9375 35.975 18.9375H37.0438C37.5687 18.9375 38 18.5062 37.925 17.9813C37.4187 14.3438 34.2687 11.5312 30.5 11.5312H11.75C7.60625 11.5312 4.25 14.8875 4.25 19.0312V32.1562C4.25 36.3 7.60625 39.6562 11.75 39.6562H30.5C34.2875 39.6562 37.4187 36.8438 37.925 33.2062C38 32.6812 37.5687 32.25 37.0438 32.25H36.2C32.6375 32.25 29.6375 29.5875 29.3375 26.175ZM24.875 22.3125H13.625C12.8562 22.3125 12.2188 21.6937 12.2188 20.9062C12.2188 20.1187 12.8562 19.5 13.625 19.5H24.875C25.6437 19.5 26.2812 20.1375 26.2812 20.9062C26.2812 21.675 25.6437 22.3125 24.875 22.3125Z" fill="#292D32"/>
<path d="M27.1435 7.4625C27.631 7.96875 27.1997 8.71875 26.4872 8.71875H11.806C9.76224 8.71875 7.84973 9.31875 6.25598 10.35C5.52473 10.8188 4.53098 10.3125 4.88723 9.50625C5.93723 7.05 8.39348 5.34375 11.2247 5.34375H21.7622C23.9372 5.34375 25.8685 6.1125 27.1435 7.4625Z" fill="#292D32"/>
</svg>
