<svg width="46" height="45" viewBox="0 0 46 45" fill="none" xmlns="http://www.w3.org/2000/svg">
<path d="M22.8875 4.14417L18.3687 14.6629H13.85C13.1 14.6629 12.3687 14.7192 11.6562 14.8692L13.5312 10.3692L13.6062 10.2004L13.7188 9.90042C13.775 9.76917 13.8125 9.65667 13.8688 9.56292C16.0438 4.51917 18.4812 2.94417 22.8875 4.14417Z" fill="#086CAE "/>
<path d="M35.6184 15.1684L35.5809 15.1496C34.4559 14.8309 33.3121 14.6621 32.1496 14.6621H20.4121L24.6309 4.85586L24.6871 4.72461C24.9496 4.81836 25.2309 4.94961 25.5121 5.04336L29.6559 6.78711C31.9621 7.74336 33.5746 8.73711 34.5684 9.93711C34.7371 10.1621 34.8871 10.3684 35.0371 10.6121C35.2059 10.8746 35.3371 11.1371 35.4121 11.4184C35.4871 11.5871 35.5434 11.7371 35.5809 11.9059C35.8621 12.8621 35.8809 13.9496 35.6184 15.1684Z" fill="#086CAE "/>
<path d="M23.9746 33.1129H24.4434C25.0059 33.1129 25.4746 32.6066 25.4746 31.9879C25.4746 31.2004 25.2496 31.0879 24.7621 30.9004L23.9746 30.6191V33.1129Z" fill="#292D32"/>
<path d="M34.793 17.8496C33.9492 17.6059 33.068 17.4746 32.1492 17.4746H13.8492C12.5742 17.4746 11.3742 17.7184 10.2492 18.2059C6.98672 19.6121 4.69922 22.8559 4.69922 26.6246V30.2809C4.69922 30.7309 4.73672 31.1621 4.79297 31.6121C5.20547 37.5746 8.39297 40.7621 14.3555 41.1559C14.7867 41.2121 15.218 41.2496 15.6867 41.2496H30.3117C37.2492 41.2496 40.9055 37.9496 41.2617 31.3871C41.2805 31.0309 41.2992 30.6559 41.2992 30.2809V26.6246C41.2992 22.4809 38.543 18.9934 34.793 17.8496ZM25.3992 29.0621C26.2617 29.3621 27.4242 29.9996 27.4242 31.9871C27.4242 33.6934 26.093 35.0621 24.443 35.0621H23.9742V35.4746C23.9742 36.0184 23.543 36.4496 22.9992 36.4496C22.4555 36.4496 22.0242 36.0184 22.0242 35.4746V35.0621H21.8555C20.0555 35.0621 18.5742 33.5434 18.5742 31.6684C18.5742 31.1246 19.0055 30.6934 19.5492 30.6934C20.093 30.6934 20.5242 31.1246 20.5242 31.6684C20.5242 32.4559 21.1242 33.1121 21.8555 33.1121H22.0242V29.9434L20.5992 29.4371C19.7367 29.1371 18.5742 28.4996 18.5742 26.5121C18.5742 24.8059 19.9055 23.4371 21.5555 23.4371H22.0242V23.0246C22.0242 22.4809 22.4555 22.0496 22.9992 22.0496C23.543 22.0496 23.9742 22.4809 23.9742 23.0246V23.4371H24.143C25.943 23.4371 27.4242 24.9559 27.4242 26.8309C27.4242 27.3746 26.993 27.8059 26.4492 27.8059C25.9055 27.8059 25.4742 27.3746 25.4742 26.8309C25.4742 26.0434 24.8742 25.3871 24.143 25.3871H23.9742V28.5559L25.3992 29.0621Z" fill="#292D32"/>
<path d="M20.5254 26.5127C20.5254 27.3002 20.7504 27.4127 21.2379 27.6002L22.0254 27.8814V25.3877H21.5566C20.9754 25.3877 20.5254 25.8939 20.5254 26.5127Z" fill="#292D32"/>
</svg>
