<svg width="46" height="45" viewBox="0 0 46 45" fill="none" xmlns="http://www.w3.org/2000/svg">
<path d="M27.407 3.75H18.5945C16.6445 3.75 15.0508 5.325 15.0508 7.275V9.0375C15.0508 10.9875 16.6258 12.5625 18.5758 12.5625H27.407C29.357 12.5625 30.932 10.9875 30.932 9.0375V7.275C30.9508 5.325 29.357 3.75 27.407 3.75Z" fill="#086CAE "/>
<path d="M32.8242 9.03704C32.8242 12.0183 30.3867 14.4558 27.4055 14.4558H18.593C15.6117 14.4558 13.1742 12.0183 13.1742 9.03704C13.1742 7.98703 12.0492 7.33078 11.1117 7.81828C8.46797 9.22453 6.66797 12.0183 6.66797 15.2245V32.8683C6.66797 37.4808 10.4367 41.2495 15.0492 41.2495H30.9492C35.5617 41.2495 39.3305 37.4808 39.3305 32.8683V15.2245C39.3305 12.0183 37.5305 9.22453 34.8867 7.81828C33.9492 7.33078 32.8242 7.98703 32.8242 9.03704ZM29.2617 23.8683L21.7617 31.3683C21.4805 31.6495 21.1242 31.7808 20.768 31.7808C20.4117 31.7808 20.0555 31.6495 19.7742 31.3683L16.9617 28.5558C16.418 28.012 16.418 27.112 16.9617 26.5683C17.5055 26.0245 18.4055 26.0245 18.9492 26.5683L20.768 28.387L27.2742 21.8808C27.818 21.337 28.718 21.337 29.2617 21.8808C29.8055 22.4245 29.8055 23.3245 29.2617 23.8683Z" fill="#086CAE "/>
</svg>
