<svg width="46" height="45" viewBox="0 0 46 45" fill="none" xmlns="http://www.w3.org/2000/svg">
<path d="M27.407 3.75H18.5945C16.6445 3.75 15.0508 5.325 15.0508 7.275V9.0375C15.0508 10.9875 16.6258 12.5625 18.5758 12.5625H27.407C29.357 12.5625 30.932 10.9875 30.932 9.0375V7.275C30.9508 5.325 29.357 3.75 27.407 3.75Z" fill="#086CAE "/>
<path d="M32.8242 9.03704C32.8242 12.0183 30.3867 14.4558 27.4055 14.4558H18.593C15.6117 14.4558 13.1742 12.0183 13.1742 9.03704C13.1742 7.98703 12.0492 7.33078 11.1117 7.81828C8.46797 9.22453 6.66797 12.0183 6.66797 15.2245V32.8683C6.66797 37.4808 10.4367 41.2495 15.0492 41.2495H30.9492C35.5617 41.2495 39.3305 37.4808 39.3305 32.8683V15.2245C39.3305 12.0183 37.5305 9.22453 34.8867 7.81828C33.9492 7.33078 32.8242 7.98703 32.8242 9.03704ZM27.743 31.2933C27.4617 31.5745 27.1055 31.7058 26.7492 31.7058C26.393 31.7058 26.0367 31.5745 25.7555 31.2933L23.0367 28.5745L20.243 31.3683C19.9617 31.6495 19.6055 31.7808 19.2492 31.7808C18.893 31.7808 18.5367 31.6495 18.2555 31.3683C17.7117 30.8245 17.7117 29.9245 18.2555 29.3808L21.0492 26.587L18.3305 23.8683C17.7867 23.3245 17.7867 22.4245 18.3305 21.8808C18.8742 21.337 19.7742 21.337 20.318 21.8808L23.0367 24.5995L25.6617 21.9745C26.2055 21.4308 27.1055 21.4308 27.6492 21.9745C28.193 22.5183 28.193 23.4183 27.6492 23.962L25.0242 26.587L27.743 29.3058C28.2867 29.8495 28.2867 30.7308 27.743 31.2933Z" fill="#086CAE "/>
</svg>
