<svg width="84" height="83" viewBox="0 0 84 83" fill="none" xmlns="http://www.w3.org/2000/svg">
<rect x="0.5" width="83" height="83" rx="12" fill="#F6F6F6"/>
<path d="M46.407 22.75H37.5945C35.6445 22.75 34.0508 24.325 34.0508 26.275V28.0375C34.0508 29.9875 35.6258 31.5625 37.5758 31.5625H46.407C48.357 31.5625 49.932 29.9875 49.932 28.0375V26.275C49.9508 24.325 48.357 22.75 46.407 22.75Z" fill="#086CAE "/>
<path d="M51.8242 28.037C51.8242 31.0183 49.3867 33.4558 46.4055 33.4558H37.593C34.6117 33.4558 32.1742 31.0183 32.1742 28.037C32.1742 26.987 31.0492 26.3308 30.1117 26.8183C27.468 28.2245 25.668 31.0183 25.668 34.2245V51.8683C25.668 56.4808 29.4367 60.2495 34.0492 60.2495H49.9492C54.5617 60.2495 58.3305 56.4808 58.3305 51.8683V34.2245C58.3305 31.0183 56.5305 28.2245 53.8867 26.8183C52.9492 26.3308 51.8242 26.987 51.8242 28.037ZM48.2617 42.8683L40.7617 50.3683C40.4805 50.6495 40.1242 50.7808 39.768 50.7808C39.4117 50.7808 39.0555 50.6495 38.7742 50.3683L35.9617 47.5558C35.418 47.012 35.418 46.112 35.9617 45.5683C36.5055 45.0245 37.4055 45.0245 37.9492 45.5683L39.768 47.387L46.2742 40.8808C46.818 40.337 47.718 40.337 48.2617 40.8808C48.8055 41.4245 48.8055 42.3245 48.2617 42.8683Z" fill="#086CAE "/>
</svg>
