<svg width="84" height="83" viewBox="0 0 84 83" fill="none" xmlns="http://www.w3.org/2000/svg">
<rect x="0.5" width="83" height="83" rx="12" fill="#F6F6F6"/>
<path d="M55.125 34C58.2316 34 60.75 31.4816 60.75 28.375C60.75 25.2684 58.2316 22.75 55.125 22.75C52.0184 22.75 49.5 25.2684 49.5 28.375C49.5 31.4816 52.0184 34 55.125 34Z" fill="#086CAE "/>
<path d="M56.625 36.6625C56.5875 36.6625 56.55 36.6813 56.5125 36.6813C56.325 36.7188 56.1375 36.7375 55.9313 36.775C55.1438 36.85 54.3 36.8125 53.4375 36.6437C53.2125 36.5875 53.025 36.55 52.8188 36.475C52.2 36.325 51.6187 36.0812 51.075 35.7625C50.85 35.65 50.625 35.5 50.4187 35.3687C49.5187 34.75 48.75 33.9813 48.1313 33.0813C48 32.875 47.85 32.65 47.7375 32.425C47.4188 31.8812 47.175 31.3 47.025 30.6813C46.95 30.475 46.9125 30.2875 46.8563 30.0625C46.6875 29.2 46.65 28.3563 46.725 27.5688C46.7625 27.3625 46.7812 27.175 46.8187 26.9875C46.8187 26.95 46.8375 26.9125 46.8375 26.875C47.0625 25.7125 46.2 24.625 45 24.625H33.6C33.3375 24.625 33.075 24.6437 32.8313 24.6625C32.6062 24.6812 32.4 24.7 32.175 24.7375C31.95 24.7562 31.725 24.7937 31.5187 24.8312C27 25.4875 24.1125 28.3562 23.4562 32.8937C23.4187 33.1 23.3812 33.325 23.3625 33.55C23.325 33.775 23.3062 33.9812 23.2875 34.2062C23.2687 34.45 23.25 34.7125 23.25 34.975V49.9C23.25 50.1625 23.2687 50.425 23.2875 50.6687C23.3062 50.8937 23.325 51.1 23.3625 51.325C23.3812 51.55 23.4187 51.775 23.4562 51.9813C24.1125 56.5188 27 59.3875 31.5187 60.0437C31.725 60.0812 31.95 60.1188 32.175 60.1375C32.4 60.175 32.6062 60.1937 32.8313 60.2125C33.075 60.2313 33.3375 60.25 33.6 60.25H48.525C48.7875 60.25 49.05 60.2313 49.2938 60.2125C49.5188 60.1937 49.725 60.175 49.95 60.1375C50.175 60.1188 50.4 60.0812 50.6063 60.0437C55.125 59.3875 58.0125 56.5188 58.6687 51.9813C58.7062 51.775 58.7438 51.55 58.7625 51.325C58.8 51.1 58.8187 50.8937 58.8375 50.6687C58.8563 50.425 58.875 50.1625 58.875 49.9V38.5C58.875 37.3 57.7875 36.4375 56.625 36.6625ZM32.1562 42.4375H41.5312C42.3 42.4375 42.9375 43.075 42.9375 43.8438C42.9375 44.6125 42.3 45.25 41.5312 45.25H32.1562C31.3875 45.25 30.75 44.6125 30.75 43.8438C30.75 43.075 31.3875 42.4375 32.1562 42.4375ZM49.0312 52.75H32.1562C31.3875 52.75 30.75 52.1125 30.75 51.3438C30.75 50.575 31.3875 49.9375 32.1562 49.9375H49.0312C49.8 49.9375 50.4375 50.575 50.4375 51.3438C50.4375 52.1125 49.8 52.75 49.0312 52.75Z" fill="#086CAE "/>
</svg>
