<svg width="84" height="83" viewBox="0 0 84 83" fill="none" xmlns="http://www.w3.org/2000/svg">
<rect x="0.5" width="83" height="83" rx="12" fill="#F6F6F6"/>
<path d="M60.75 47.125C60.75 54.3812 54.8812 60.25 47.625 60.25L49.5937 56.9688" stroke="#292D32" stroke-width="1.5" stroke-linecap="round" stroke-linejoin="round"/>
<path d="M23.25 35.875C23.25 28.6188 29.1188 22.75 36.375 22.75L34.4062 26.0312" stroke="#292D32" stroke-width="1.5" stroke-linecap="round" stroke-linejoin="round"/>
<path d="M60.75 26.875V27.0813C60.75 27.6063 60.3375 28.0188 59.8125 28.0188H42.9375C42.4125 28.0188 42 27.6063 42 27.0813V26.875C42 23.575 42.825 22.75 46.1625 22.75H56.5875C59.925 22.75 60.75 23.575 60.75 26.875Z" fill="#292D32"/>
<path d="M42.9375 29.8936C42.4125 29.8936 42 30.3061 42 30.8311V32.7061V34.5623C42 37.8623 42.825 38.6873 46.1625 38.6873H56.5875C59.925 38.6873 60.75 37.8623 60.75 34.5623V32.7061V30.8311C60.75 30.3061 60.3375 29.8936 59.8125 29.8936H42.9375Z" fill="#292D32"/>
<path d="M42 48.4375V48.6438C42 49.1688 41.5875 49.5812 41.0625 49.5812H24.1875C23.6625 49.5812 23.25 49.1688 23.25 48.6438V48.4375C23.25 45.1375 24.075 44.3125 27.4125 44.3125H37.8375C41.175 44.3125 42 45.1375 42 48.4375Z" fill="#292D32"/>
<path d="M24.1875 51.4561C23.6625 51.4561 23.25 51.8686 23.25 52.3936V54.2686V56.1248C23.25 59.4248 24.075 60.2498 27.4125 60.2498H37.8375C41.175 60.2498 42 59.4248 42 56.1248V54.2686V52.3936C42 51.8686 41.5875 51.4561 41.0625 51.4561H24.1875Z" fill="#292D32"/>
</svg>
