<svg width="84" height="83" viewBox="0 0 84 83" fill="none" xmlns="http://www.w3.org/2000/svg">
<rect x="0.5" width="83" height="83" rx="12" fill="#F6F6F6"/>
<path d="M49.0875 22.75H34.9125C27.825 22.75 26.0625 24.6437 26.0625 32.2V53.3125C26.0625 58.3 28.8 59.4812 32.1188 55.9188L32.1375 55.9C33.675 54.2687 36.0188 54.4 37.35 56.1812L39.2437 58.7125C40.7625 60.7188 43.2188 60.7188 44.7375 58.7125L46.6313 56.1812C47.9813 54.3812 50.325 54.25 51.8625 55.9C55.2 59.4625 57.9187 58.2812 57.9187 53.2937V32.2C57.9375 24.6437 56.175 22.75 49.0875 22.75ZM34.0875 41.5C33.0563 41.5 32.2125 40.6562 32.2125 39.625C32.2125 38.5937 33.0563 37.75 34.0875 37.75C35.1188 37.75 35.9625 38.5937 35.9625 39.625C35.9625 40.6562 35.1188 41.5 34.0875 41.5ZM34.0875 34C33.0563 34 32.2125 33.1562 32.2125 32.125C32.2125 31.0937 33.0563 30.25 34.0875 30.25C35.1188 30.25 35.9625 31.0937 35.9625 32.125C35.9625 33.1562 35.1188 34 34.0875 34ZM49.9312 41.0312H39.6187C38.85 41.0312 38.2125 40.3937 38.2125 39.625C38.2125 38.8562 38.85 38.2187 39.6187 38.2187H49.9312C50.7 38.2187 51.3375 38.8562 51.3375 39.625C51.3375 40.3937 50.7 41.0312 49.9312 41.0312ZM49.9312 33.5312H39.6187C38.85 33.5312 38.2125 32.8937 38.2125 32.125C38.2125 31.3562 38.85 30.7187 39.6187 30.7187H49.9312C50.7 30.7187 51.3375 31.3562 51.3375 32.125C51.3375 32.8937 50.7 33.5312 49.9312 33.5312Z" fill="#086CAE "/>
</svg>
