<svg width="84" height="83" viewBox="0 0 84 83" fill="none" xmlns="http://www.w3.org/2000/svg">
<rect x="0.5" width="83" height="83" rx="12" fill="#F6F6F6"/>
<path d="M21.806 59.6527L23.231 58.2277C22.481 57.1027 22.0497 55.7527 22.0497 54.309C22.0497 50.3527 25.256 47.1465 29.2122 47.1465C33.1685 47.1465 36.3747 50.334 36.3747 54.2902C36.3747 58.2465 33.1685 61.4527 29.2122 61.4527C27.7685 61.4527 26.4185 61.0215 25.2935 60.2715L23.8685 61.6965C23.5685 61.9777 23.1935 62.1277 22.8185 62.1277C22.4435 62.1277 22.0685 61.9777 21.7872 61.6965C21.2247 61.134 21.2247 60.2152 21.806 59.6527Z" fill="#086CAE "/>
<path d="M59.8125 42.4375H55.125C53.0625 42.4375 51.375 44.125 51.375 46.1875C51.375 48.25 53.0625 49.9375 55.125 49.9375H59.8125C60.3375 49.9375 60.75 49.525 60.75 49V43.375C60.75 42.85 60.3375 42.4375 59.8125 42.4375Z" fill="#292D32"/>
<path d="M50.4937 29.1248C51.0562 29.6686 50.5875 30.5123 49.8 30.5123L34.275 30.4936C33.375 30.4936 32.925 29.4061 33.5625 28.7686L36.8437 25.4686C39.6187 22.7123 44.1 22.7123 46.875 25.4686L50.4187 29.0498C50.4375 29.0686 50.475 29.1061 50.4937 29.1248Z" fill="#292D32"/>
<path d="M60.5063 53.9875C59.3625 57.85 56.0625 60.25 51.5625 60.25H39.375C38.6438 60.25 38.175 59.4437 38.475 58.7687C39.0375 57.4562 39.3938 55.975 39.3938 54.625C39.3938 48.9438 34.7625 44.3125 29.0813 44.3125C27.6563 44.3125 26.2688 44.6125 24.9938 45.175C24.3 45.475 23.4563 45.0063 23.4563 44.2563V41.5C23.4563 36.4 26.5313 32.8375 31.3125 32.2375C31.7813 32.1625 32.2875 32.125 32.8125 32.125H51.5625C52.05 32.125 52.5188 32.1438 52.9688 32.2188C56.7563 32.65 59.4938 34.9563 60.5063 38.3875C60.6938 39.0063 60.2438 39.625 59.6063 39.625H55.3125C51.2438 39.625 48.0188 43.3375 48.9 47.5562C49.5188 50.6312 52.3688 52.75 55.5 52.75H59.6063C60.2625 52.75 60.6938 53.3875 60.5063 53.9875Z" fill="#292D32"/>
</svg>
