<svg width="46" height="45" viewBox="0 0 46 45" fill="none" xmlns="http://www.w3.org/2000/svg">
<path d="M30.8563 3.75H15.1438C8.31875 3.75 4.25 7.81875 4.25 14.6438V30.3563C4.25 37.1813 8.31875 41.25 15.1438 41.25H30.8563C37.6813 41.25 41.75 37.1813 41.75 30.3563V14.6438C41.75 7.81875 37.6813 3.75 30.8563 3.75ZM19.1938 27.9375L14.975 32.1562C14.6937 32.4375 14.3375 32.5688 13.9812 32.5688C13.625 32.5688 13.25 32.4375 12.9875 32.1562L11.5812 30.75C11.0187 30.2062 11.0187 29.3062 11.5812 28.7625C12.125 28.2188 13.0062 28.2188 13.5687 28.7625L13.9812 29.175L17.2062 25.95C17.75 25.4062 18.6313 25.4062 19.1938 25.95C19.7375 26.4937 19.7375 27.3937 19.1938 27.9375ZM19.1938 14.8125L14.975 19.0312C14.6937 19.3125 14.3375 19.4437 13.9812 19.4437C13.625 19.4437 13.25 19.3125 12.9875 19.0312L11.5812 17.625C11.0187 17.0812 11.0187 16.1813 11.5812 15.6375C12.125 15.0938 13.0062 15.0938 13.5687 15.6375L13.9812 16.05L17.2062 12.825C17.75 12.2812 18.6313 12.2812 19.1938 12.825C19.7375 13.3688 19.7375 14.2688 19.1938 14.8125ZM33.425 31.1625H23.5813C22.8125 31.1625 22.175 30.525 22.175 29.7563C22.175 28.9875 22.8125 28.35 23.5813 28.35H33.425C34.2125 28.35 34.8312 28.9875 34.8312 29.7563C34.8312 30.525 34.2125 31.1625 33.425 31.1625ZM33.425 18.0375H23.5813C22.8125 18.0375 22.175 17.4 22.175 16.6312C22.175 15.8625 22.8125 15.225 23.5813 15.225H33.425C34.2125 15.225 34.8312 15.8625 34.8312 16.6312C34.8312 17.4 34.2125 18.0375 33.425 18.0375Z" fill="#086CAE "/>
</svg>
