<svg width="34" height="34" viewBox="0 0 34 34" fill="none" xmlns="http://www.w3.org/2000/svg">
<rect width="34" height="34" rx="17" fill="#F6F6F6"/>
<path d="M26 27H8C7.59 27 7.25 26.66 7.25 26.25C7.25 25.84 7.59 25.5 8 25.5H26C26.41 25.5 26.75 25.84 26.75 26.25C26.75 26.66 26.41 27 26 27Z" fill="#A9A9AC"/>
<path d="M24.0206 8.47967C22.0806 6.53967 20.1806 6.48967 18.1906 8.47967L16.9806 9.68967C16.8806 9.78967 16.8406 9.94967 16.8806 10.0897C17.6406 12.7397 19.7606 14.8597 22.4106 15.6197C22.4506 15.6297 22.4906 15.6397 22.5306 15.6397C22.6406 15.6397 22.7406 15.5997 22.8206 15.5197L24.0206 14.3097C25.0106 13.3297 25.4906 12.3797 25.4906 11.4197C25.5006 10.4297 25.0206 9.46967 24.0206 8.47967Z" fill="#A9A9AC"/>
<path d="M20.6103 16.5298C20.3203 16.3898 20.0403 16.2498 19.7703 16.0898C19.5503 15.9598 19.3403 15.8198 19.1303 15.6698C18.9603 15.5598 18.7603 15.3998 18.5703 15.2398C18.5503 15.2298 18.4803 15.1698 18.4003 15.0898C18.0703 14.8098 17.7003 14.4498 17.3703 14.0498C17.3403 14.0298 17.2903 13.9598 17.2203 13.8698C17.1203 13.7498 16.9503 13.5498 16.8003 13.3198C16.6803 13.1698 16.5403 12.9498 16.4103 12.7298C16.2503 12.4598 16.1103 12.1898 15.9703 11.9098C15.9491 11.8644 15.9286 11.8192 15.9088 11.7743C15.7612 11.441 15.3265 11.3436 15.0688 11.6013L9.34032 17.3298C9.21032 17.4598 9.09032 17.7098 9.06032 17.8798L8.52032 21.7098C8.42032 22.3898 8.61032 23.0298 9.03032 23.4598C9.39032 23.8098 9.89032 23.9998 10.4303 23.9998C10.5503 23.9998 10.6703 23.9898 10.7903 23.9698L14.6303 23.4298C14.8103 23.3998 15.0603 23.2798 15.1803 23.1498L20.9016 17.4285C21.1612 17.1689 21.0633 16.7235 20.7257 16.5794C20.6877 16.5632 20.6492 16.5467 20.6103 16.5298Z" fill="#A9A9AC"/>
</svg>
