<svg width="46" height="45" viewBox="0 0 46 45" fill="none" xmlns="http://www.w3.org/2000/svg">
<path d="M40.0422 13.0871C38.4485 11.3246 35.786 10.4434 31.9235 10.4434H31.4735V10.3684C31.4735 7.21836 31.4735 3.31836 24.4235 3.31836H21.5735C14.5235 3.31836 14.5235 7.23711 14.5235 10.3684V10.4621H14.0735C10.1922 10.4621 7.54848 11.3434 5.95473 13.1059C4.09848 15.1684 4.15473 17.9434 4.34223 19.8371L4.36098 19.9684L4.52594 21.7004C4.5402 21.8502 4.62051 21.9851 4.74615 22.0679C5.14614 22.3314 6.05723 22.9253 6.57348 23.2121C6.83598 23.3809 7.11723 23.5309 7.39848 23.6809C10.6047 25.4434 14.1297 26.6246 17.711 27.2059C17.8797 28.9684 18.6485 31.0309 22.7547 31.0309C26.861 31.0309 27.6672 28.9871 27.7985 27.1684C31.6235 26.5496 35.3172 25.2184 38.6547 23.2684C38.7672 23.2121 38.8422 23.1559 38.936 23.0996C39.7348 22.6481 40.5658 22.084 41.3098 21.5414C41.4224 21.4593 41.4947 21.3334 41.5101 21.1948L41.561 20.7371L41.6547 19.8559C41.6735 19.7434 41.6735 19.6496 41.6922 19.5184C41.8422 17.6246 41.8047 15.0371 40.0422 13.0871ZM25.0422 25.9309C25.0422 27.9184 25.0422 28.2184 22.736 28.2184C20.4297 28.2184 20.4297 27.8621 20.4297 25.9496V23.5871H25.0422V25.9309ZM17.2047 10.4434V10.3684C17.2047 7.18086 17.2047 5.99961 21.5735 5.99961H24.4235C28.7922 5.99961 28.7922 7.19961 28.7922 10.3684V10.4621H17.2047V10.4434Z" fill="#086CAE "/>
<path d="M40.3472 25.4102C40.6997 25.2396 41.1035 25.5207 41.0681 25.9107L40.3242 34.1056C39.9305 37.8556 38.393 41.6806 30.143 41.6806H15.8555C7.60547 41.6806 6.06797 37.8556 5.67422 34.1244L4.96601 26.334C4.93097 25.9486 5.32558 25.6678 5.67723 25.8295C7.57392 26.7016 12.4251 28.8714 15.1229 29.5262C15.2879 29.5663 15.4216 29.6835 15.4879 29.8399C16.5786 32.4144 19.0864 33.7869 22.7555 33.7869C26.3882 33.7869 28.93 32.3616 30.0229 29.7838C30.0893 29.6273 30.2227 29.5102 30.3879 29.4701C33.2458 28.7759 38.3758 26.364 40.3472 25.4102Z" fill="#086CAE "/>
</svg>
