<svg width="46" height="45" viewBox="0 0 46 45" fill="none" xmlns="http://www.w3.org/2000/svg">
<path d="M33.368 14.5688C33.2367 14.55 33.1055 14.55 32.9742 14.5688C30.068 14.475 27.7617 12.0938 27.7617 9.16875C27.7617 6.1875 30.1805 3.75 33.1805 3.75C36.1617 3.75 38.5992 6.16875 38.5992 9.16875C38.5805 12.0938 36.2742 14.475 33.368 14.5688Z" fill="#086CAE "/>
<path d="M39.4813 27.5623C37.3813 28.9685 34.4375 29.4935 31.7187 29.1373C32.4312 27.5998 32.8062 25.8935 32.825 24.0935C32.825 22.2185 32.4125 20.4373 31.625 18.881C34.4 18.506 37.3438 19.031 39.4625 20.4373C42.425 22.3873 42.425 25.5935 39.4813 27.5623Z" fill="#292D32"/>
<path d="M12.5758 14.5688C12.707 14.55 12.8383 14.55 12.9695 14.5688C15.8758 14.475 18.182 12.0938 18.182 9.16875C18.182 6.16875 15.7633 3.75 12.7633 3.75C9.78203 3.75 7.36328 6.16875 7.36328 9.16875C7.36328 12.0938 9.66953 14.475 12.5758 14.5688Z" fill="#292D32"/>
<path d="M12.7828 24.0939C12.7828 25.9126 13.1766 27.6376 13.8891 29.1939C11.2453 29.4751 8.48906 28.9126 6.46406 27.5814C3.50156 25.6126 3.50156 22.4064 6.46406 20.4376C8.47031 19.0876 11.3016 18.5439 13.9641 18.8439C13.1953 20.4189 12.7828 22.2001 12.7828 24.0939Z" fill="#292D32"/>
<path d="M23.225 29.7563C23.075 29.7375 22.9062 29.7375 22.7375 29.7563C19.2875 29.6438 16.5312 26.8125 16.5312 23.325C16.55 19.7625 19.4187 16.875 23 16.875C26.5625 16.875 29.45 19.7625 29.45 23.325C29.4312 26.8125 26.6937 29.6438 23.225 29.7563Z" fill="#292D32"/>
<path d="M17.1312 33.6367C14.3 35.5305 14.3 38.643 17.1312 40.518C20.3562 42.6742 25.6438 42.6742 28.8688 40.518C31.7 38.6242 31.7 35.5117 28.8688 33.6367C25.6625 31.4805 20.375 31.4805 17.1312 33.6367Z" fill="#292D32"/>
</svg>
