<svg width="46" height="45" viewBox="0 0 46 45" fill="none" xmlns="http://www.w3.org/2000/svg">
<path d="M17.375 3.75C12.4625 3.75 8.46875 7.74375 8.46875 12.6562C8.46875 17.475 12.2375 21.375 17.15 21.5437C17.3 21.525 17.45 21.525 17.5625 21.5437C17.6 21.5437 17.6187 21.5437 17.6562 21.5437C17.675 21.5437 17.675 21.5437 17.6938 21.5437C22.4937 21.375 26.2625 17.475 26.2812 12.6562C26.2812 7.74375 22.2875 3.75 17.375 3.75Z" fill="#086CAE "/>
<path d="M26.9008 26.5316C21.6695 23.0441 13.1383 23.0441 7.86953 26.5316C5.48828 28.1254 4.17578 30.2816 4.17578 32.5879C4.17578 34.8941 5.48828 37.0316 7.85078 38.6066C10.4758 40.3691 13.9258 41.2504 17.3758 41.2504C20.8258 41.2504 24.2758 40.3691 26.9008 38.6066C29.2633 37.0129 30.5758 34.8754 30.5758 32.5504C30.557 30.2441 29.2633 28.1066 26.9008 26.5316Z" fill="#086CAE "/>
<path d="M37.982 13.762C38.282 17.3995 35.6945 20.587 32.1133 21.0182C32.0945 21.0182 32.0945 21.0182 32.0758 21.0182H32.0195C31.907 21.0182 31.7945 21.0182 31.7008 21.0557C29.882 21.1495 28.2133 20.5682 26.957 19.4995C28.8883 17.7745 29.9945 15.187 29.7695 12.3745C29.6383 10.8557 29.1133 9.4682 28.3258 8.28695C29.0383 7.9307 29.8633 7.7057 30.707 7.6307C34.382 7.31195 37.6633 10.0495 37.982 13.762Z" fill="#292D32"/>
<path d="M41.7305 31.107C41.5805 32.9257 40.418 34.5007 38.468 35.5695C36.593 36.6007 34.2305 37.0882 31.8867 37.032C33.2367 35.8132 34.0242 34.2945 34.1742 32.682C34.3617 30.357 33.2555 28.1257 31.043 26.3445C29.7867 25.3507 28.3242 24.5632 26.7305 23.982C30.8742 22.782 36.0867 23.5882 39.293 26.1757C41.018 27.5632 41.8992 29.307 41.7305 31.107Z" fill="#292D32"/>
</svg>
