<svg width="46" height="45" viewBox="0 0 46 45" fill="none" xmlns="http://www.w3.org/2000/svg">
<path d="M25.4377 15.2059L27.9127 20.1559C28.2502 20.8309 29.1502 21.5059 29.9002 21.6184L34.3814 22.3684C37.2502 22.8559 37.9252 24.9184 35.8627 26.9809L32.3752 30.4871C31.7939 31.0684 31.4564 32.2121 31.6439 33.0371L32.6377 37.3684C33.4252 40.7809 31.6064 42.1121 28.5877 40.3309L24.3877 37.8371C23.6189 37.3871 22.3814 37.3871 21.6127 37.8371L17.3939 40.3121C14.3752 42.0934 12.5564 40.7621 13.3439 37.3496L14.3377 33.0184C14.5252 32.2121 14.1877 31.0684 13.6064 30.4684L10.1377 26.9996C8.07519 24.9371 8.75019 22.8559 11.6189 22.3871L16.1002 21.6371C16.8502 21.5059 17.7502 20.8496 18.0877 20.1746L20.5627 15.2246C21.8939 12.5246 24.1064 12.5246 25.4377 15.2059Z" fill="#086CAE "/>
<path d="M11.75 18.2812C10.9812 18.2812 10.3438 17.6438 10.3438 16.875V3.75C10.3438 2.98125 10.9812 2.34375 11.75 2.34375C12.5187 2.34375 13.1562 2.98125 13.1562 3.75V16.875C13.1562 17.6438 12.5187 18.2812 11.75 18.2812Z" fill="#292D32"/>
<path d="M34.25 18.2812C33.4812 18.2812 32.8438 17.6438 32.8438 16.875V3.75C32.8438 2.98125 33.4812 2.34375 34.25 2.34375C35.0187 2.34375 35.6562 2.98125 35.6562 3.75V16.875C35.6562 17.6438 35.0187 18.2812 34.25 18.2812Z" fill="#292D32"/>
<path d="M23 8.90625C22.2312 8.90625 21.5938 8.26875 21.5938 7.5V3.75C21.5938 2.98125 22.2312 2.34375 23 2.34375C23.7687 2.34375 24.4062 2.98125 24.4062 3.75V7.5C24.4062 8.26875 23.7687 8.90625 23 8.90625Z" fill="#292D32"/>
</svg>
