<svg width="46" height="45" viewBox="0 0 46 45" fill="none" xmlns="http://www.w3.org/2000/svg">
<path d="M34.25 3.75H11.75C8.6375 3.75 6.125 6.24375 6.125 9.31875V29.775C6.125 32.85 8.6375 35.3625 11.75 35.3625H13.175C14.6562 35.3625 16.1 35.9437 17.15 36.9937L20.3563 40.1625C21.8188 41.6063 24.1812 41.6063 25.6437 40.1625L28.85 36.9937C29.9 35.9437 31.3438 35.3625 32.825 35.3625H34.25C37.3625 35.3625 39.875 32.85 39.875 29.775V9.31875C39.875 6.24375 37.3625 3.75 34.25 3.75ZM23 10.4063C25.025 10.4063 26.6562 12.0562 26.6562 14.0625C26.6562 16.05 25.0812 17.6437 23.1312 17.7188C23.0562 17.7188 22.9438 17.7188 22.85 17.7188C20.8813 17.6437 19.325 16.05 19.325 14.0625C19.3438 12.0562 20.975 10.4063 23 10.4063ZM28.1562 27.5437C25.325 29.4375 20.675 29.4375 17.8438 27.5437C15.35 25.8937 15.35 23.1562 17.8438 21.4875C20.6938 19.5938 25.3438 19.5938 28.1562 21.4875C30.65 23.1562 30.65 25.875 28.1562 27.5437Z" fill="#086CAE "/>
</svg>
